<svg width="12" height="12" viewBox="0 0 12 12" fill="none" xmlns="http://www.w3.org/2000/svg">
<path d="M1.33366 1.99984C1.70185 1.99984 2.00033 1.70136 2.00033 1.33317C2.00033 0.964981 1.70185 0.666504 1.33366 0.666504C0.965469 0.666504 0.666992 0.964981 0.666992 1.33317C0.666992 1.70136 0.965469 1.99984 1.33366 1.99984Z" fill="white"/>
<path d="M6.00033 1.99984C6.36852 1.99984 6.66699 1.70136 6.66699 1.33317C6.66699 0.964981 6.36852 0.666504 6.00033 0.666504C5.63214 0.666504 5.33366 0.964981 5.33366 1.33317C5.33366 1.70136 5.63214 1.99984 6.00033 1.99984Z" fill="white"/>
<path d="M10.667 1.99984C11.0352 1.99984 11.3337 1.70136 11.3337 1.33317C11.3337 0.964981 11.0352 0.666504 10.667 0.666504C10.2988 0.666504 10.0003 0.964981 10.0003 1.33317C10.0003 1.70136 10.2988 1.99984 10.667 1.99984Z" fill="white"/>
<path d="M1.33366 6.6665C1.70185 6.6665 2.00033 6.36803 2.00033 5.99984C2.00033 5.63165 1.70185 5.33317 1.33366 5.33317C0.965469 5.33317 0.666992 5.63165 0.666992 5.99984C0.666992 6.36803 0.965469 6.6665 1.33366 6.6665Z" fill="white"/>
<path d="M6.00033 6.6665C6.36852 6.6665 6.66699 6.36803 6.66699 5.99984C6.66699 5.63165 6.36852 5.33317 6.00033 5.33317C5.63214 5.33317 5.33366 5.63165 5.33366 5.99984C5.33366 6.36803 5.63214 6.6665 6.00033 6.6665Z" fill="white"/>
<path d="M10.667 6.6665C11.0352 6.6665 11.3337 6.36803 11.3337 5.99984C11.3337 5.63165 11.0352 5.33317 10.667 5.33317C10.2988 5.33317 10.0003 5.63165 10.0003 5.99984C10.0003 6.36803 10.2988 6.6665 10.667 6.6665Z" fill="white"/>
<path d="M1.33366 11.3332C1.70185 11.3332 2.00033 11.0347 2.00033 10.6665C2.00033 10.2983 1.70185 9.99984 1.33366 9.99984C0.965469 9.99984 0.666992 10.2983 0.666992 10.6665C0.666992 11.0347 0.965469 11.3332 1.33366 11.3332Z" fill="white"/>
<path d="M6.00033 11.3332C6.36852 11.3332 6.66699 11.0347 6.66699 10.6665C6.66699 10.2983 6.36852 9.99984 6.00033 9.99984C5.63214 9.99984 5.33366 10.2983 5.33366 10.6665C5.33366 11.0347 5.63214 11.3332 6.00033 11.3332Z" fill="white"/>
<path d="M10.667 11.3332C11.0352 11.3332 11.3337 11.0347 11.3337 10.6665C11.3337 10.2983 11.0352 9.99984 10.667 9.99984C10.2988 9.99984 10.0003 10.2983 10.0003 10.6665C10.0003 11.0347 10.2988 11.3332 10.667 11.3332Z" fill="white"/>
<path d="M1.33366 1.99984C1.70185 1.99984 2.00033 1.70136 2.00033 1.33317C2.00033 0.964981 1.70185 0.666504 1.33366 0.666504C0.965469 0.666504 0.666992 0.964981 0.666992 1.33317C0.666992 1.70136 0.965469 1.99984 1.33366 1.99984Z" stroke="white" stroke-linecap="round" stroke-linejoin="round"/>
<path d="M6.00033 1.99984C6.36852 1.99984 6.66699 1.70136 6.66699 1.33317C6.66699 0.964981 6.36852 0.666504 6.00033 0.666504C5.63214 0.666504 5.33366 0.964981 5.33366 1.33317C5.33366 1.70136 5.63214 1.99984 6.00033 1.99984Z" stroke="white" stroke-linecap="round" stroke-linejoin="round"/>
<path d="M10.667 1.99984C11.0352 1.99984 11.3337 1.70136 11.3337 1.33317C11.3337 0.964981 11.0352 0.666504 10.667 0.666504C10.2988 0.666504 10.0003 0.964981 10.0003 1.33317C10.0003 1.70136 10.2988 1.99984 10.667 1.99984Z" stroke="white" stroke-linecap="round" stroke-linejoin="round"/>
<path d="M1.33366 6.6665C1.70185 6.6665 2.00033 6.36803 2.00033 5.99984C2.00033 5.63165 1.70185 5.33317 1.33366 5.33317C0.965469 5.33317 0.666992 5.63165 0.666992 5.99984C0.666992 6.36803 0.965469 6.6665 1.33366 6.6665Z" stroke="white" stroke-linecap="round" stroke-linejoin="round"/>
<path d="M6.00033 6.6665C6.36852 6.6665 6.66699 6.36803 6.66699 5.99984C6.66699 5.63165 6.36852 5.33317 6.00033 5.33317C5.63214 5.33317 5.33366 5.63165 5.33366 5.99984C5.33366 6.36803 5.63214 6.6665 6.00033 6.6665Z" stroke="white" stroke-linecap="round" stroke-linejoin="round"/>
<path d="M10.667 6.6665C11.0352 6.6665 11.3337 6.36803 11.3337 5.99984C11.3337 5.63165 11.0352 5.33317 10.667 5.33317C10.2988 5.33317 10.0003 5.63165 10.0003 5.99984C10.0003 6.36803 10.2988 6.6665 10.667 6.6665Z" stroke="white" stroke-linecap="round" stroke-linejoin="round"/>
<path d="M1.33366 11.3332C1.70185 11.3332 2.00033 11.0347 2.00033 10.6665C2.00033 10.2983 1.70185 9.99984 1.33366 9.99984C0.965469 9.99984 0.666992 10.2983 0.666992 10.6665C0.666992 11.0347 0.965469 11.3332 1.33366 11.3332Z" stroke="white" stroke-linecap="round" stroke-linejoin="round"/>
<path d="M6.00033 11.3332C6.36852 11.3332 6.66699 11.0347 6.66699 10.6665C6.66699 10.2983 6.36852 9.99984 6.00033 9.99984C5.63214 9.99984 5.33366 10.2983 5.33366 10.6665C5.33366 11.0347 5.63214 11.3332 6.00033 11.3332Z" stroke="white" stroke-linecap="round" stroke-linejoin="round"/>
<path d="M10.667 11.3332C11.0352 11.3332 11.3337 11.0347 11.3337 10.6665C11.3337 10.2983 11.0352 9.99984 10.667 9.99984C10.2988 9.99984 10.0003 10.2983 10.0003 10.6665C10.0003 11.0347 10.2988 11.3332 10.667 11.3332Z" stroke="white" stroke-linecap="round" stroke-linejoin="round"/>
</svg>
