<svg width="14" height="14" viewBox="0 0 14 14" fill="none" xmlns="http://www.w3.org/2000/svg">
<path d="M7.68442 0.333828C8.17091 0.331961 8.6574 0.336851 9.14375 0.348495L9.27308 0.353161C9.42242 0.358495 9.56975 0.365161 9.74775 0.373161C10.4571 0.406495 10.9411 0.518495 11.3657 0.683162C11.8057 0.852495 12.1764 1.08183 12.5471 1.45249C12.886 1.78557 13.1483 2.18846 13.3158 2.63316C13.4804 3.05783 13.5924 3.54249 13.6258 4.25183C13.6338 4.42916 13.6404 4.57716 13.6458 4.72649L13.6497 4.85583C13.6616 5.34196 13.6667 5.82823 13.6651 6.3145L13.6658 6.81183V7.68516C13.6674 8.17165 13.6623 8.65814 13.6504 9.1445L13.6464 9.27383C13.6411 9.42316 13.6344 9.57049 13.6264 9.7485C13.5931 10.4578 13.4798 10.9418 13.3158 11.3665C13.1488 11.8117 12.8865 12.2149 12.5471 12.5478C12.2137 12.8867 11.8106 13.149 11.3657 13.3165C10.9411 13.4812 10.4571 13.5932 9.74775 13.6265C9.56975 13.6345 9.42242 13.6412 9.27308 13.6465L9.14375 13.6505C8.6574 13.6623 8.17091 13.6675 7.68442 13.6658L7.18708 13.6665H6.31442C5.82792 13.6681 5.34143 13.663 4.85508 13.6512L4.72575 13.6472C4.56749 13.6414 4.40926 13.6348 4.25108 13.6272C3.54175 13.5938 3.05775 13.4805 2.63242 13.3165C2.18754 13.1494 1.78457 12.887 1.45175 12.5478C1.11245 12.2147 0.849899 11.8115 0.682416 11.3665C0.517749 10.9418 0.405749 10.4578 0.372416 9.7485C0.364991 9.59031 0.358324 9.43208 0.352416 9.27383L0.349083 9.1445C0.336792 8.65815 0.331236 8.17166 0.332416 7.68516V6.3145C0.330555 5.82823 0.335445 5.34196 0.347083 4.85583L0.351749 4.72649C0.357083 4.57716 0.363749 4.42916 0.371749 4.25183C0.405083 3.54183 0.517083 3.05849 0.681749 2.63316C0.849331 2.18824 1.11239 1.78546 1.45242 1.45316C1.78501 1.11366 2.18772 0.850877 2.63242 0.683162C3.05775 0.518495 3.54108 0.406495 4.25108 0.373161L4.72575 0.353161L4.85508 0.349828C5.34121 0.337543 5.82747 0.331987 6.31375 0.333161L7.68442 0.333828ZM6.99908 3.66716C6.55742 3.66091 6.11892 3.74251 5.70907 3.90721C5.29921 4.0719 4.92618 4.31641 4.61165 4.62653C4.29711 4.93665 4.04735 5.30619 3.87687 5.71367C3.7064 6.12115 3.61861 6.55846 3.61861 7.00016C3.61861 7.44187 3.7064 7.87917 3.87687 8.28665C4.04735 8.69414 4.29711 9.06367 4.61165 9.37379C4.92618 9.68391 5.29921 9.92842 5.70907 10.0931C6.11892 10.2578 6.55742 10.3394 6.99908 10.3332C7.88314 10.3332 8.73098 9.98197 9.35611 9.35685C9.98123 8.73173 10.3324 7.88388 10.3324 6.99983C10.3324 6.11577 9.98123 5.26793 9.35611 4.64281C8.73098 4.01768 7.88314 3.66716 6.99908 3.66716ZM6.99908 5.00049C7.26475 4.9956 7.52874 5.04369 7.77561 5.14197C8.02249 5.24024 8.24731 5.38672 8.43694 5.57286C8.62656 5.75899 8.7772 5.98105 8.88004 6.22606C8.98289 6.47106 9.03588 6.73411 9.03593 6.99982C9.03597 7.26554 8.98307 7.5286 8.8803 7.77364C8.77754 8.01868 8.62698 8.24079 8.43741 8.42699C8.24785 8.61318 8.02308 8.75974 7.77623 8.8581C7.52939 8.95645 7.26542 9.00463 6.99975 8.99983C6.46932 8.99983 5.96061 8.78911 5.58554 8.41404C5.21046 8.03897 4.99975 7.53026 4.99975 6.99983C4.99975 6.4694 5.21046 5.96069 5.58554 5.58561C5.96061 5.21054 6.46932 4.99983 6.99975 4.99983L6.99908 5.00049ZM10.4991 2.66716C10.284 2.67577 10.0806 2.76726 9.93149 2.92248C9.78236 3.07769 9.69908 3.28458 9.69908 3.49983C9.69908 3.71507 9.78236 3.92197 9.93149 4.07718C10.0806 4.23239 10.284 4.32389 10.4991 4.33249C10.7201 4.33249 10.9321 4.2447 11.0883 4.08842C11.2446 3.93214 11.3324 3.72018 11.3324 3.49916C11.3324 3.27815 11.2446 3.06619 11.0883 2.90991C10.9321 2.75363 10.7201 2.66583 10.4991 2.66583V2.66716Z" fill="#3A463C"/>
</svg>
