<svg width="81" height="48" viewBox="0 0 81 48" fill="none" xmlns="http://www.w3.org/2000/svg">
<path fill-rule="evenodd" clip-rule="evenodd" d="M27.5133 5.06912C22.3359 10.2203 22.0665 10.5566 22.8684 10.8626C23.2769 11.0183 33.4776 0.88583 33.409 0.392501C33.2778 -0.549435 32.6979 -0.0895171 27.5133 5.06912ZM24.663 2.26593C22.4669 4.43589 22.3832 4.53873 22.5206 4.89476C22.7736 5.5501 23.4013 5.17614 25.3597 3.20352C26.4378 2.1175 27.3199 1.15433 27.3199 1.06315C27.3199 0.828753 26.9401 0.479508 26.6853 0.479508C26.5673 0.479508 25.6574 1.28345 24.663 2.26593ZM34.1722 4.19696C30.9113 7.44058 30.4874 7.92365 30.8471 7.98507C31.0738 8.02388 31.4233 8.03101 31.6238 8.00073C31.8241 7.97045 33.5055 6.43026 35.36 4.57823C38.4264 1.51628 38.7142 1.17783 38.5351 0.845285C38.4269 0.644125 38.2418 0.479508 38.124 0.479508C38.0062 0.479508 36.2279 2.15248 34.1722 4.19696ZM39.4242 4.54586L35.3355 8.61204L35.6463 9.08345L35.9573 9.55485L39.9663 5.58281C42.1714 3.39807 44.0548 1.4686 44.1518 1.29494C44.3411 0.955609 44.0842 0.479508 43.7118 0.479508C43.6024 0.479508 41.6731 2.30926 39.4242 4.54586ZM43.2594 6.21918C37.6115 11.7377 37.4063 11.9611 37.569 12.4186C37.6618 12.6796 37.8165 12.9182 37.9128 12.949C38.0091 12.9796 40.7554 10.3534 44.0156 7.11292C49.4674 1.69413 49.9272 1.19122 49.7437 0.850157C49.6339 0.646387 49.4483 0.482814 49.3314 0.486991C49.2144 0.491167 46.4819 3.07057 43.2594 6.21918ZM51.157 4.1686L47.4623 7.8751L48.1896 7.93008L48.9171 7.98507L52.2188 4.71083C54.9418 2.01048 55.5119 1.36054 55.4711 1.00312C55.4441 0.764543 55.2935 0.545285 55.1368 0.515877C54.9584 0.482292 53.4684 1.84987 51.157 4.1686ZM55.1083 5.84279C52.5579 8.3954 52.3578 8.64232 52.3578 9.23606C52.3578 9.58809 52.4177 9.87625 52.4909 9.87625C52.5642 9.87625 54.0252 8.48206 55.7377 6.77811C58.0678 4.45955 58.8228 3.60567 58.7376 3.38484C58.4649 2.67887 57.86 3.08867 55.1083 5.84279ZM54.4435 12.2361C52.4779 14.204 50.8511 15.834 50.8287 15.8583C50.7042 15.9939 50.6458 17.1881 50.7603 17.2584C50.9201 17.3566 58.8361 9.50648 58.8361 9.2498C58.8361 9.01489 58.4627 8.65816 58.2167 8.65816C58.1072 8.65816 56.4092 10.2683 54.4435 12.2361ZM25.605 12.7097C23.2065 15.0975 22.4306 15.9727 22.5159 16.1937C22.7857 16.8921 23.3894 16.4839 26.1517 13.7347L28.9188 10.9804L28.8635 10.2507L28.8081 9.52092L25.605 12.7097ZM30.3293 10.1752C30.3806 10.7935 30.4286 10.8432 31.122 10.996L31.86 11.1586L31.9099 17.5216C31.9374 21.0211 31.9314 23.9829 31.8967 24.1034C31.8621 24.2239 31.6257 24.3655 31.3715 24.4182C30.5695 24.5846 30.384 24.7659 30.384 25.3824V25.9725H33.0979H35.8118V25.2813C35.8118 24.6036 35.7972 24.5876 35.065 24.4633C34.6542 24.3937 34.2447 24.2916 34.155 24.2364C33.9395 24.1041 33.9103 13.5305 34.1255 13.5305C34.2615 13.5305 35.7571 16.0969 37.8776 19.9691C38.9678 21.9594 39.8155 23.3668 39.999 23.4902C40.3532 23.7284 41.2704 23.6261 41.5351 23.3188C41.6794 23.1512 42.9619 20.9 44.3854 18.3159C45.8087 15.7318 47.0424 13.5432 47.1268 13.4522C47.2149 13.3572 47.2802 15.6298 47.2802 18.7925V24.298L46.4979 24.4146C45.5797 24.5515 45.308 24.8126 45.3853 25.4836L45.4417 25.9725H48.2432H51.0446L51.0217 25.5375C51.0091 25.2982 50.9893 25.0057 50.9779 24.8874C50.9665 24.7692 50.6016 24.5836 50.1671 24.4748L49.3771 24.2771L49.4229 17.7347L49.4688 11.1923L50.1945 11.0496C50.859 10.9191 50.9264 10.8558 50.9917 10.2993C51.031 9.965 51.0261 9.65491 50.9809 9.60984C50.9357 9.56494 50.0573 9.52823 49.029 9.52823C47.4645 9.52823 47.1166 9.57799 46.8981 9.83275C46.6484 10.1239 46.2069 10.9125 42.3733 17.9127L40.6882 20.9896L40.2256 20.0879C39.9712 19.5918 38.5479 17.0326 37.0626 14.4006L34.3622 9.61523L32.3183 9.56616L30.2745 9.51692L30.3293 10.1752ZM42.0367 13.2603C39.62 15.6666 39.5203 15.7934 39.7152 16.2185C39.8273 16.4629 39.9882 16.6628 40.0728 16.6628C40.1573 16.6628 40.888 15.9765 41.696 15.1376C42.724 14.0707 43.3928 13.1818 43.9219 12.1793C44.338 11.3912 44.6521 10.7463 44.62 10.7463C44.588 10.7463 43.4254 11.8776 42.0367 13.2603ZM26.376 17.5177C24.177 19.7106 22.4112 21.6039 22.4518 21.725C22.4925 21.8461 22.6602 22.0292 22.8244 22.1319C23.0771 22.2895 23.7013 21.7419 26.8848 18.5688C30.4274 15.0379 30.6466 14.7817 30.6466 14.1749C30.6466 13.8205 30.5853 13.5305 30.5102 13.5305C30.4353 13.5305 28.5747 15.3248 26.376 17.5177ZM54.4317 18.1116C51.171 21.287 50.81 21.696 50.7601 22.2709C50.7296 22.6217 50.7554 22.9588 50.817 23.0202C50.8788 23.0815 52.7187 21.377 54.9055 19.2323C58.59 15.6192 58.867 15.3051 58.6779 14.9538C58.5654 14.7452 58.3779 14.5781 58.261 14.5823C58.144 14.5866 56.4208 16.1749 54.4317 18.1116ZM26.308 22.9797C24.1681 25.1139 22.4173 26.9446 22.4173 27.0476C22.4173 27.298 22.8864 27.6739 23.1049 27.5987C23.2007 27.5656 24.9367 25.9017 26.9629 23.9009C30.294 20.6113 30.6466 20.2073 30.6466 19.6811C30.6466 19.3243 30.5599 19.099 30.4226 19.099C30.2994 19.099 28.4478 20.8452 26.308 22.9797ZM35.5841 19.6558C35.3488 19.8897 35.2933 21.1872 35.5187 21.1872C35.5981 21.1872 35.8475 20.9921 36.0728 20.7539C36.4249 20.3813 36.4542 20.2591 36.282 19.8838C36.0597 19.3988 35.8965 19.3454 35.5841 19.6558ZM55.1428 22.7968C52.5595 25.4253 52.3634 25.6704 52.3608 26.2771C52.3592 26.636 52.4198 26.9296 52.4954 26.9296C52.6971 26.9296 58.8361 20.761 58.8361 20.5584C58.8361 20.3068 58.4537 19.9691 58.1689 19.9691C58.033 19.9691 56.6713 21.2416 55.1428 22.7968ZM38.5517 28.0475C31.2613 35.283 30.8136 35.8052 31.7864 35.9393C32.0415 35.9745 33.9782 34.154 39.0187 29.1405L45.9026 22.2935L45.8472 21.5778L45.7919 20.8619L38.5517 28.0475ZM37.4886 23.5221C37.1761 23.8527 37.1162 24.0579 37.2093 24.4791C37.2745 24.7741 37.3737 25.0155 37.4296 25.0155C37.5581 25.0155 38.5276 23.9432 38.5201 23.8095C38.5123 23.6719 38.0674 23.1013 37.9678 23.1013C37.923 23.1013 37.7073 23.2906 37.4886 23.5221ZM53.1828 30.3798C48.2717 35.2609 47.8378 35.8076 48.7702 35.9413C49.0246 35.9776 50.3908 34.7242 53.8242 31.3048C56.4124 28.7275 58.5914 26.5196 58.6668 26.3983C58.7421 26.2772 58.7656 26.0792 58.7188 25.9583C58.4408 25.238 58.0118 25.5807 53.1828 30.3798ZM25.5189 29.6813C23.813 31.3861 22.4173 32.8583 22.4173 32.9527C22.4173 33.1889 22.7931 33.5421 23.0443 33.5421C23.405 33.5421 29.2462 27.5564 29.0631 27.3744C28.971 27.2829 28.8957 27.0671 28.8957 26.8948C28.8957 26.7225 28.8337 26.5816 28.7581 26.5816C28.6822 26.5816 27.2246 27.9765 25.5189 29.6813ZM29.6207 31.3424C26.8009 34.147 25.7265 35.3249 25.7721 35.5623C25.9409 36.4424 26.5113 36.0083 30.8203 31.7197L35.1088 27.4516H34.3207H33.5326L29.6207 31.3424ZM40.9289 31.3762C37.394 34.8451 36.9624 35.3286 37.1269 35.6339C37.2289 35.8233 37.4355 35.9783 37.5863 35.9783C37.7369 35.9783 39.8024 34.0616 42.1763 31.7188L46.4923 27.4593L45.7044 27.461L44.9165 27.4628L40.9289 31.3762ZM46.6045 31.3424C43.7847 34.147 42.7103 35.3249 42.7558 35.5623C42.9246 36.4424 43.4951 36.0083 47.804 31.7197L52.0925 27.4516H51.3045H50.5164L46.6045 31.3424ZM55.8025 33.5195C53.9038 35.4342 53.6228 35.9783 54.5319 35.9783C55.0699 35.9783 58.5698 32.4443 58.4189 32.0533C58.3595 31.8994 58.3109 31.7407 58.3109 31.7007C58.3109 31.6607 58.1685 31.628 57.9943 31.628C57.8203 31.628 56.834 32.4791 55.8025 33.5195ZM11.6493 41.8988C11.3986 41.9935 11.0006 42.7842 10.2486 44.6813C9.67076 46.139 9.10557 47.3674 8.99264 47.4109C8.8797 47.4545 8.74436 47.6016 8.69183 47.7377C8.61637 47.9333 8.79759 47.9853 9.55363 47.9853C10.2631 47.9853 10.5112 47.9214 10.5112 47.7387C10.5112 47.6031 10.4275 47.4645 10.3253 47.4307C10.1076 47.3585 10.4173 46.4103 10.7189 46.2251C10.9108 46.1073 13.1078 46.1414 13.1936 46.2636C13.22 46.3013 13.3321 46.5415 13.4424 46.7975C13.6035 47.1707 13.5931 47.304 13.3904 47.4714C12.9337 47.848 13.1235 47.9853 14.1005 47.9853C14.6302 47.9853 15.0635 47.9317 15.0635 47.8659C15.0635 47.8003 14.9214 47.585 14.7477 47.3874C14.5738 47.1899 13.9782 45.8797 13.4238 44.4761C12.8695 43.0723 12.3222 41.8885 12.2076 41.8452C12.0931 41.8019 11.8419 41.8261 11.6493 41.8988ZM42.4652 41.8988C42.2145 41.9935 41.8165 42.7842 41.0645 44.6813C40.4867 46.139 39.9215 47.3674 39.8085 47.4109C39.6956 47.4545 39.5603 47.6016 39.5077 47.7377C39.4323 47.9333 39.6135 47.9853 40.3695 47.9853C41.079 47.9853 41.3271 47.9214 41.3271 47.7387C41.3271 47.6031 41.2434 47.4645 41.1412 47.4307C40.9226 47.3583 41.2339 46.4099 41.5374 46.2236C41.7951 46.0652 43.6484 46.0522 43.8694 46.207C43.9678 46.2758 44.1406 46.5415 44.2536 46.7975C44.4199 47.1739 44.4108 47.3026 44.2063 47.4714C43.7496 47.848 43.9394 47.9853 44.9165 47.9853C45.6228 47.9853 45.8795 47.9207 45.8795 47.7429C45.8795 47.6096 45.7697 47.4585 45.6355 47.4076C45.5014 47.3564 44.9786 46.2712 44.4735 44.9962C43.1069 41.5464 43.1641 41.6348 42.4652 41.8988ZM0.531046 42.1462C0.531046 42.295 0.649232 42.4168 0.793681 42.4168C1.015 42.4168 1.05632 42.8112 1.05632 44.9214C1.05632 46.9871 1.01027 47.4436 0.793681 47.5262C0.192946 47.7552 0.5876 47.9853 1.58159 47.9853C2.35934 47.9853 2.63213 47.9228 2.63213 47.7446C2.63213 47.6122 2.47455 47.4629 2.28195 47.4128C1.95943 47.3291 1.93177 47.1754 1.93177 45.4682C1.93177 44.3479 1.99725 43.6546 2.09723 43.716C2.18828 43.7721 2.66645 44.5596 3.15985 45.4664C4.36062 47.6736 4.52538 47.6722 5.69621 45.444C6.17771 44.5276 6.63084 43.7411 6.70298 43.6962C6.77512 43.6511 6.8343 44.4385 6.8343 45.4457C6.8343 47.0989 6.80016 47.2951 6.48412 47.4632C5.84521 47.8031 6.12028 47.9853 7.27202 47.9853C8.42377 47.9853 8.69884 47.8031 8.05993 47.4632C7.73566 47.2908 7.70975 47.0989 7.70975 44.8671C7.70975 42.6037 7.73094 42.452 8.05993 42.3664C8.73333 42.1915 8.41869 41.8948 7.5597 41.8948H6.70911L5.61007 43.9073C4.90323 45.2011 4.45044 45.8597 4.34171 45.7516C4.24874 45.6592 3.72084 44.7732 3.16861 43.7827L2.16446 41.9818L1.34784 41.9287C0.70281 41.887 0.531046 41.9326 0.531046 42.1462ZM17.0771 42.0625C16.0787 42.4781 15.388 43.6421 15.3764 44.9289C15.3665 46.036 15.791 46.9868 16.5289 47.509C17.249 48.0185 19.2366 48.1475 20.201 47.7471L20.8578 47.4742L20.8058 46.2942L20.754 45.1141L20.1849 45.1339C19.074 45.1723 18.9155 45.2031 18.9155 45.3794C18.9155 45.4776 19.1519 45.6048 19.4408 45.6622C19.9148 45.7563 19.9661 45.8317 19.9661 46.4331C19.9661 47.0588 19.9281 47.1065 19.3435 47.2154C18.4039 47.3907 17.5167 47.1822 16.9643 46.6562C16.0369 45.7732 16.0876 44.1484 17.0734 43.1688C17.5887 42.6566 17.7627 42.5908 18.6019 42.5908C19.6182 42.5908 20.0753 42.8188 20.1725 43.3739C20.2061 43.5653 20.3506 43.7219 20.4938 43.7219C20.685 43.7219 20.754 43.5166 20.754 42.9467C20.754 42.2681 20.6994 42.1565 20.3163 42.0505C19.6992 41.8798 17.4963 41.8882 17.0771 42.0625ZM21.3668 42.0627C21.3668 42.1549 21.5244 42.3143 21.717 42.4168C22.0404 42.5888 22.0672 42.7812 22.0672 44.9249C22.0672 47.1387 22.0488 47.2589 21.6732 47.5101C21.1019 47.8918 21.3544 48.0098 22.6159 47.9506L23.7305 47.8983L23.3366 47.5551C22.964 47.2304 22.9426 47.0825 22.9426 44.8261C22.9426 42.5931 22.965 42.4332 23.2928 42.3298C23.9984 42.1073 23.6136 41.8948 22.5049 41.8948C21.8789 41.8948 21.3668 41.9703 21.3668 42.0627ZM25.432 42.1842C24.7154 42.5353 24.2414 43.1842 23.9728 44.182C23.6101 45.5305 24.1432 46.9609 25.261 47.6381C26.0664 48.1262 27.8844 48.1193 28.7003 47.6251C29.509 47.135 29.2073 46.7933 28.2244 47.086C26.0804 47.7244 24.6765 46.6675 24.9119 44.592C25.0591 43.2932 25.8407 42.5908 27.1387 42.5908C28.0302 42.5908 28.3704 42.7342 28.3704 43.1103C28.3704 43.4587 28.7801 43.8657 28.9556 43.6915C29.0189 43.6285 29.0708 43.2749 29.0708 42.9056C29.0708 42.345 28.9967 42.2063 28.6217 42.0645C27.9185 41.7989 26.0778 41.868 25.432 42.1842ZM31.3469 42.0531C31.3469 42.1508 31.5045 42.3143 31.6971 42.4168C32.0207 42.5889 32.0473 42.7812 32.0473 44.94C32.0473 47.0989 32.0207 47.2911 31.6971 47.4632C31.0582 47.8031 31.3333 47.9853 32.485 47.9853C33.1921 47.9853 33.6231 47.9132 33.6231 47.7949C33.6231 47.6903 33.4655 47.5636 33.2729 47.5137C32.9492 47.4295 32.9228 47.2765 32.9235 45.4852L32.924 43.5479L33.2409 44.07C33.4151 44.3571 33.8647 45.1596 34.2401 45.8536C35.1949 47.6188 35.3912 47.5795 36.5962 45.3815C37.1188 44.4279 37.5649 43.6663 37.5875 43.6887C37.6103 43.7111 37.6439 44.5445 37.6626 45.5406C37.6945 47.2454 37.6745 47.3595 37.3231 47.4888C36.5944 47.7568 36.9463 47.9853 38.0879 47.9853C39.2397 47.9853 39.5147 47.8031 38.8758 47.4632C38.5523 47.2911 38.5257 47.0989 38.5257 44.94C38.5257 42.7812 38.5523 42.5889 38.8758 42.4168C39.464 42.104 39.2689 41.8946 38.3943 41.8997L37.5627 41.9045L36.4498 43.9114C35.8378 45.0152 35.2942 45.8759 35.242 45.8239C35.1897 45.772 34.6642 44.8863 34.0742 43.8556L33.0014 41.9818L32.1741 41.9287C31.694 41.8979 31.3469 41.9501 31.3469 42.0531ZM46.2296 42.4748C46.2296 42.7939 46.2767 43.1018 46.3343 43.1588C46.5047 43.3283 46.93 43.0957 46.93 42.8333C46.93 42.6664 47.1485 42.5908 47.6304 42.5908H48.3307V45.0067C48.3307 47.2763 48.3095 47.4281 47.9805 47.5137C47.7879 47.5636 47.6304 47.6903 47.6304 47.7949C47.6304 47.9132 48.0614 47.9853 48.7684 47.9853C49.4755 47.9853 49.9065 47.9132 49.9065 47.7949C49.9065 47.6903 49.7489 47.5636 49.5563 47.5137C49.2274 47.4281 49.2062 47.2763 49.2062 45.0067V42.5908H49.9065C50.3884 42.5908 50.6069 42.6664 50.6069 42.8333C50.6069 43.0957 51.0322 43.3283 51.2025 43.1588C51.2602 43.1018 51.3073 42.7939 51.3073 42.4748V41.8948H48.7684H46.2296V42.4748ZM51.8325 42.1558C51.8325 42.2994 51.9507 42.4168 52.0952 42.4168C52.3165 42.4168 52.3578 42.8132 52.3578 44.94C52.3578 47.0668 52.3165 47.4632 52.0952 47.4632C51.9507 47.4632 51.8325 47.5807 51.8325 47.7243C51.8325 47.9423 52.1925 47.9853 54.0212 47.9853H56.2098V47.3865C56.2098 46.6997 55.8834 46.3783 55.7398 46.9236C55.6547 47.2469 55.5143 47.2892 54.5259 47.2892H53.4083V46.3405V45.3916L54.5027 45.3399C55.4628 45.2943 55.597 45.2454 55.597 44.94C55.597 44.6346 55.4628 44.5857 54.5027 44.5401L53.4083 44.4885V43.5396V42.5908H54.5259C55.5143 42.5908 55.6547 42.6331 55.7398 42.9565C55.8834 43.5018 56.2098 43.1804 56.2098 42.4936V41.8948H54.0212C52.1925 41.8948 51.8325 41.9378 51.8325 42.1558ZM56.7351 42.0627C56.7351 42.1549 56.8926 42.3143 57.0852 42.4168C57.4095 42.5893 57.4354 42.7812 57.4354 45.013C57.4354 47.2763 57.4142 47.4281 57.0852 47.5137C56.8926 47.5636 56.7351 47.6903 56.7351 47.7949C56.7351 47.9132 57.1661 47.9853 57.8731 47.9853C58.9633 47.9853 59.2905 47.813 58.7661 47.5154C58.6138 47.429 58.4979 46.9972 58.4597 46.3755C58.4024 45.4393 58.4235 45.3745 58.7871 45.3749C59.075 45.3751 59.405 45.713 60.0618 46.6802C60.9132 47.9343 60.9749 47.9853 61.6374 47.9853C62.1784 47.9853 62.3052 47.9291 62.2262 47.7243C62.1707 47.5807 62.0186 47.4632 61.888 47.4632C61.6451 47.4632 60.2369 45.5421 60.2369 45.2106C60.2369 45.1097 60.3493 45.027 60.4867 45.027C60.8917 45.027 61.4625 44.1563 61.4625 43.5387C61.4625 42.1929 60.9243 41.8948 58.4947 41.8948C57.4811 41.8948 56.7351 41.966 56.7351 42.0627ZM62.6881 42.0742C62.6881 42.173 62.8063 42.2989 62.9508 42.3538C63.3262 42.4971 63.3444 47.4632 62.9695 47.4632C62.8354 47.4632 62.6802 47.5807 62.6247 47.7243C62.5416 47.9397 62.7217 47.9853 63.6566 47.9853C64.8638 47.9853 64.9951 47.8899 64.439 47.4166C64.1223 47.1471 64.0888 46.9033 64.0888 44.8609C64.0888 42.7812 64.1165 42.5884 64.439 42.4168C65.0648 42.0839 64.8111 41.8948 63.7387 41.8948C63.1337 41.8948 62.6881 41.9708 62.6881 42.0742ZM67.6889 42.4603C67.5602 42.7715 67.046 44.0183 66.5462 45.2312C66.0465 46.444 65.5255 47.4791 65.3885 47.5313C64.8216 47.7476 65.1954 47.9853 66.1024 47.9853C67.068 47.9853 67.2382 47.8786 66.8651 47.5078C66.7145 47.3581 66.7189 47.1787 66.8819 46.7874C67.0748 46.3243 67.2067 46.2526 68.059 46.1468C68.6431 46.0743 69.1827 46.1019 69.4379 46.2175C69.915 46.4334 70.1874 47.2142 69.8891 47.5107C69.5191 47.8784 69.6912 47.9853 70.6547 47.9853C71.1844 47.9853 71.6177 47.9317 71.6177 47.8659C71.6177 47.8003 71.4714 47.585 71.2926 47.3874C71.1138 47.1899 70.5087 45.8733 69.9481 44.4615C68.9649 41.9863 68.9107 41.8948 68.4258 41.8948C68.0233 41.8948 67.8762 42.0076 67.6889 42.4603ZM71.9679 42.0601C71.9679 42.1511 72.0945 42.2959 72.2493 42.382C72.4886 42.5152 72.5265 42.8978 72.503 44.9554C72.4813 46.8643 72.4221 47.402 72.2216 47.5134C71.5929 47.8631 72.094 47.9853 74.1565 47.9853H76.3452V47.4735C76.3452 46.8551 76.0211 46.6064 75.7303 47.0016C75.5767 47.2102 75.2474 47.2892 74.5312 47.2892H73.5437V44.8717C73.5437 42.8832 73.5903 42.4363 73.8064 42.3538C74.4071 42.1248 74.0124 41.8948 73.0185 41.8948C72.4407 41.8948 71.9679 41.9693 71.9679 42.0601ZM77.5573 42.4034C77.1951 42.7635 77.0455 43.0826 77.0455 43.4959C77.0455 44.3357 77.4435 44.7839 78.4902 45.1224C80.0095 45.614 80.401 46.2166 79.6719 46.9412C79.1004 47.5092 77.5708 47.3825 77.5708 46.7672C77.5708 46.4513 77.166 46.1835 76.9751 46.3732C76.9175 46.4303 76.8704 46.7682 76.8704 47.1239C76.8704 47.8842 77.0793 47.9813 78.7089 47.979C80.1432 47.9769 80.8975 47.3367 80.8975 46.1212C80.8975 45.3669 80.4686 44.9138 79.3662 44.504C78.1323 44.0451 77.921 43.8777 77.921 43.3588C77.921 42.8397 78.4492 42.5553 79.2853 42.6243C79.7969 42.6665 79.9459 42.7577 79.9885 43.0546C80.0443 43.4437 80.4579 43.7105 80.7382 43.5382C80.8259 43.4844 80.8975 43.1736 80.8975 42.8477C80.8975 42.0881 80.5419 41.8948 79.1447 41.8948C78.1894 41.8948 78.0119 41.9517 77.5573 42.4034ZM58.3109 43.6163C58.3109 44.786 58.4408 44.9051 59.4668 44.675C61.1619 44.2951 60.8609 42.5908 59.0988 42.5908H58.3109V43.6163ZM11.412 44.1157C10.8558 45.634 10.8435 45.5856 11.7848 45.5926C12.2444 45.5961 12.6687 45.551 12.7275 45.4925C12.8467 45.374 12.1166 43.3255 11.9096 43.1985C11.8372 43.154 11.6132 43.5667 11.412 44.1157ZM42.2033 44.2422C41.9739 44.8518 41.8011 45.4099 41.8193 45.4824C41.8772 45.7132 43.6033 45.6578 43.6033 45.4252C43.6033 45.1205 42.9041 43.3083 42.7502 43.2136C42.6788 43.1698 42.4326 43.6327 42.2033 44.2422ZM67.9746 44.0103C67.7801 44.5217 67.5661 45.0772 67.4994 45.2446C67.3926 45.5127 67.4954 45.5491 68.3598 45.5491C68.8998 45.5491 69.3416 45.5129 69.3416 45.4687C69.3416 45.2865 68.5876 43.3628 68.4631 43.2272C68.3891 43.1465 68.1692 43.4989 67.9746 44.0103Z" fill="#121212"/>
</svg>
