<?xml version="1.0" standalone="no"?>
<!DOCTYPE svg PUBLIC "-//W3C//DTD SVG 20010904//EN"
 "http://www.w3.org/TR/2001/REC-SVG-20010904/DTD/svg10.dtd">
<svg version="1.0" xmlns="http://www.w3.org/2000/svg" width="90" viewBox="0 0 704.000000 1000.000000"
 preserveAspectRatio="xMidYMid meet">

<g transform="translate(0.000000,1000.000000) scale(0.100000,-0.100000)"
fill="#000000" stroke="none">
<path d="M1230 5705 l0 -2505 2368 2 2367 3 3 2503 2 2502 -2370 0 -2370 0 0
-2505z m4580 0 l0 -2355 -2215 0 -2215 0 0 2355 0 2355 2215 0 2215 0 0 -2355z"/>
<path d="M2580 7475 l0 -45 60 0 60 0 0 -685 0 -685 -60 0 -60 0 0 -45 0 -45
200 0 200 0 0 45 0 45 -65 0 -65 0 0 305 0 305 325 0 325 0 0 -274 c0 -291 4
-320 49 -369 52 -58 48 -57 456 -57 418 0 421 0 471 66 l29 37 3 679 2 678 65
0 65 0 0 45 0 45 -200 0 -200 0 0 -45 0 -45 60 0 60 0 0 -622 c-1 -674 1 -651
-56 -689 -27 -17 -49 -19 -294 -19 -248 0 -267 1 -298 20 -63 39 -62 27 -62
700 l0 610 65 0 65 0 0 45 0 45 -200 0 -200 0 0 -45 0 -45 60 0 60 0 0 -330 0
-330 -325 0 -325 0 0 330 0 330 65 0 65 0 0 45 0 45 -200 0 -200 0 0 -45z"/>
<path d="M2030 5580 l0 -70 1568 2 1567 3 0 65 0 65 -1567 3 -1568 2 0 -70z"/>
<path d="M2371 5229 c-269 -53 -444 -367 -387 -697 50 -287 228 -462 471 -462
173 0 322 94 408 258 54 103 71 178 71 322 1 203 -47 334 -163 451 -114 114
-251 158 -400 128z m183 -84 c91 -38 161 -144 190 -287 20 -98 21 -318 1 -411
-28 -132 -93 -235 -179 -280 -57 -30 -165 -30 -221 0 -123 66 -184 203 -192
438 -10 274 50 451 180 525 43 25 63 30 118 30 37 0 83 -7 103 -15z"/>
<path d="M3080 5182 c0 -25 6 -31 38 -40 56 -18 99 -48 119 -84 16 -30 18 -66
18 -408 0 -287 -3 -384 -13 -413 -15 -40 -46 -62 -109 -75 -34 -7 -38 -11 -38
-37 l0 -30 205 0 205 0 0 30 c0 26 -4 30 -38 37 -57 12 -95 35 -114 71 -16 28
-18 68 -21 337 -2 168 -2 330 0 360 l3 54 299 -452 c295 -447 299 -453 330
-450 l31 3 5 490 c4 372 8 495 18 512 15 27 54 49 105 58 33 6 37 11 37 36 l0
29 -205 0 -205 0 0 -27 c0 -25 6 -30 62 -48 107 -35 103 -19 106 -418 l2 -342
-276 418 -277 417 -144 0 -143 0 0 -28z"/>
<path d="M4300 5182 c0 -25 5 -29 50 -41 31 -8 58 -22 70 -39 20 -25 21 -36
18 -463 -3 -495 2 -465 -84 -477 -46 -7 -49 -9 -52 -40 l-3 -32 414 0 415 0 6
83 c4 45 7 120 9 167 2 83 1 85 -21 85 -19 0 -29 -13 -56 -75 -44 -102 -81
-156 -119 -172 -43 -18 -283 -18 -314 0 -35 19 -43 73 -43 276 l0 188 96 -4
c93 -4 98 -5 125 -35 28 -32 49 -88 49 -130 0 -19 6 -23 30 -23 l30 0 0 221 0
220 -27 -3 c-23 -2 -29 -9 -35 -42 -13 -60 -38 -106 -69 -121 -18 -10 -58 -15
-114 -15 l-85 0 0 215 0 215 143 0 c179 0 193 -8 258 -137 26 -51 36 -63 55
-63 l24 0 0 135 0 135 -385 0 -385 0 0 -28z"/>
<path d="M1348 2957 c-104 -30 -162 -107 -163 -217 0 -150 117 -237 290 -215
61 7 79 24 91 83 9 43 -5 40 -38 -8 -60 -87 -198 -69 -251 34 -42 80 -34 195
16 252 37 43 67 56 130 55 57 0 95 -21 110 -62 6 -16 18 -29 25 -29 9 0 12 6
8 16 -3 9 -6 31 -6 49 0 21 -6 35 -16 39 -36 14 -151 15 -196 3z"/>
<path d="M1875 2961 c-47 -12 -71 -28 -108 -72 -61 -70 -71 -172 -28 -257 24
-48 46 -66 106 -93 64 -28 139 -22 203 18 132 81 130 300 -2 378 -47 28 -122
39 -171 26z m125 -43 c45 -31 71 -86 77 -162 14 -168 -101 -261 -223 -181 -61
39 -92 184 -60 270 25 64 66 95 125 95 33 0 58 -7 81 -22z"/>
<path d="M3818 2957 c-104 -30 -162 -107 -163 -217 0 -150 117 -237 290 -215
61 7 79 24 91 83 9 43 -5 40 -38 -8 -60 -87 -198 -69 -251 34 -42 80 -34 195
16 252 37 43 67 56 130 55 57 0 95 -21 110 -62 6 -16 18 -29 25 -29 9 0 12 6
8 16 -3 9 -6 31 -6 49 0 21 -6 35 -16 39 -36 14 -151 15 -196 3z"/>
<path d="M4180 2944 c0 -12 -3 -36 -6 -53 -9 -43 12 -40 30 4 15 34 17 35 70
35 l56 0 0 -178 c0 -188 -3 -202 -47 -202 -13 0 -23 -4 -23 -10 0 -6 38 -10
95 -10 57 0 95 4 95 10 0 6 -8 10 -18 10 -38 0 -42 18 -42 203 l0 178 53 -3
c48 -3 53 -6 67 -35 15 -33 48 -48 36 -17 -3 9 -6 32 -6 52 l0 37 -180 0
c-177 0 -180 0 -180 -21z"/>
<path d="M5155 2961 c-47 -12 -71 -28 -108 -72 -61 -70 -71 -172 -28 -257 24
-48 46 -66 106 -93 64 -28 139 -22 203 18 132 81 130 300 -2 378 -47 28 -122
39 -171 26z m125 -43 c45 -31 71 -86 77 -162 14 -168 -101 -261 -223 -181 -61
39 -92 184 -60 270 25 64 66 95 125 95 33 0 58 -7 81 -22z"/>
<path d="M2290 2950 c0 -5 8 -10 18 -10 38 0 42 -18 42 -195 0 -177 -4 -195
-42 -195 -10 0 -18 -5 -18 -10 0 -7 53 -10 152 -8 l152 3 12 50 c14 52 9 72
-10 41 -39 -64 -44 -67 -115 -64 l-66 3 -3 183 -2 182 30 6 c59 12 29 24 -60
24 -53 0 -90 -4 -90 -10z"/>
<path d="M2740 2950 c0 -5 8 -10 18 -10 38 0 42 -18 42 -195 0 -177 -4 -195
-42 -195 -10 0 -18 -5 -18 -10 0 -7 53 -10 152 -8 l152 3 12 50 c14 52 9 72
-10 41 -39 -64 -44 -67 -115 -64 l-66 3 -3 183 -2 182 30 6 c59 12 29 24 -60
24 -53 0 -90 -4 -90 -10z"/>
<path d="M3190 2950 c0 -5 8 -10 18 -10 38 0 42 -18 42 -195 0 -181 -3 -195
-47 -195 -13 0 -23 -4 -23 -10 0 -6 61 -10 163 -10 l164 0 11 51 c10 44 10 74
-1 58 -2 -2 -15 -21 -31 -42 l-28 -38 -71 3 -72 3 -3 88 -3 87 50 0 c47 0 81
-17 81 -41 0 -5 5 -9 10 -9 6 0 10 28 10 65 0 63 -12 86 -23 45 -6 -23 -45
-40 -93 -40 l-34 0 0 85 0 86 68 -3 c65 -3 68 -4 82 -35 21 -46 30 -41 30 17
l0 50 -150 0 c-93 0 -150 -4 -150 -10z"/>
<path d="M4680 2950 c0 -5 8 -10 18 -10 38 0 42 -18 42 -195 0 -177 -4 -195
-42 -195 -10 0 -18 -4 -18 -10 0 -6 37 -10 90 -10 89 0 119 12 60 24 l-30 6 0
185 0 186 30 6 c59 11 29 23 -60 23 -53 0 -90 -4 -90 -10z"/>
<path d="M5560 2950 c0 -5 7 -10 15 -10 8 0 24 -9 35 -20 18 -18 20 -33 20
-167 0 -171 -4 -191 -36 -199 -49 -12 -22 -24 56 -24 80 0 106 12 50 23 -38 8
-41 23 -38 180 l3 129 135 -166 c74 -91 141 -166 148 -166 9 0 12 36 13 143 1
200 8 250 37 262 40 18 23 25 -58 25 -84 0 -102 -9 -48 -25 22 -7 35 -18 39
-35 10 -35 11 -260 1 -260 -4 0 -68 72 -142 160 l-134 160 -48 0 c-26 0 -48
-4 -48 -10z"/>
</g>
</svg>
