<svg height="63" viewBox="0 0 486 570" fill="none" xmlns="http://www.w3.org/2000/svg">
<path d="M4 251V502H241.5H479V251V-7.48038e-06H241.5H4V251ZM463 251V486H241.5H20V251V16H241.5H463V251Z" fill="white"/>
<path d="M140 75V80H146H152V148V216H146H140V221V226H160H180V221V216H173.5H167V185.5V155H199.5H232V183.5C232 214.9 232.3 216.5 237.9 221.3C243.3 225.8 246.4 226.1 285.4 225.8L321.7 225.5L325.7 222.8C333.3 217.8 333 221.3 333 146.6V80H339.5H346V75V70H326H306V75V80H312H318V141.2C318 200.9 317.9 202.6 316 205.8C312.5 211.5 309.9 212 282.8 212C256.1 212 253.9 211.6 249.6 205.7C247.5 202.9 247.5 201.8 247.2 141.4L246.9 80H253.5H260V75V70H240H220V75V80H226H232V112.5V145H199.5H167V112.5V80H173.5H180V75V70H160H140V75Z" fill="white"/>
<path d="M84 264V271H241.5H399V264V257H241.5H84V264Z" fill="white"/>
<path d="M115.9 299.4C92.3001 306 77.7001 330.5 79.3001 361.1C80.5001 384.4 90.7001 402.3 107.5 410.6C135.7 424.6 167.4 407 174.5 373.5C176.4 364.3 176.4 348.7 174.4 339.7C169.9 319.3 156.6 304 139.5 299.5C132.5 297.7 122.3 297.7 115.9 299.4ZM135.2 307.2C144.2 309.9 151.7 319.7 155.6 334C157.9 342.3 158.2 369.6 156.1 378C151.3 397.1 141.4 407.2 127.5 407.2C112.2 407.2 102.4 395.6 98.4001 372.7C95.6001 356.6 98.1001 333.6 103.9 322.1C110.5 309.3 122.7 303.4 135.2 307.2Z" fill="white"/>
<path d="M189 303.8C189 306.2 189.6 306.8 194 308.3C200.5 310.6 204.7 314.3 206 318.8C206.8 321.3 207 335.1 206.8 360C206.4 403.7 206.9 401.8 197 404.7C191.3 406.4 191 406.6 191 409.7V413H212H233V409.7C233 406.7 232.7 406.4 226.8 404.5C222.9 403.2 220 401.6 218.8 400C215.7 395.8 214.9 385.9 215.2 354.6L215.5 324.7L245.3 369.4L275 414H278.5H282V368.2C282 322.1 282.5 315.3 285.7 311.7C286.6 310.8 289.7 309.3 292.7 308.4C297.5 307 298 306.6 298 303.9V301H277.5H257V304C257 306.6 257.5 307 261.3 308.1C263.6 308.7 266.6 309.8 268.1 310.5C273.2 313.2 273.5 314.9 273.8 350.5L274.1 383.5L246.8 342.3L219.5 301.1H204.3L189 301V303.8Z" fill="white"/>
<path d="M311 303.8C311 306.3 311.5 306.7 317.3 308.5C326.4 311.4 326.2 310 325.8 359.7C325.5 399.8 325.4 401 323.4 403C322.2 404.3 319.5 405.3 316.2 405.7C311.1 406.3 311 406.3 311 409.6V413H352.9H394.8L395.4 410.2C395.7 408.7 396.2 401.1 396.6 393.2L397.2 379H394.3C391.6 379 391.1 379.6 388.6 385.8C384.5 396 380.5 401.9 376.5 403.6C374.1 404.6 369.1 405 360 405C347.4 405 346.8 404.9 344.5 402.5C342 400.1 342 400.1 342 378.9V357.7L350.4 358.3C355.1 358.6 359.8 359.5 361 360.2C363.5 361.8 366.9 368.5 367.7 373.4C368.2 376.7 368.5 377 371.6 377H375V355V333H371.6C368.5 333 368.2 333.3 367.5 336.7C365.5 347.8 361.5 351 349.8 351H342V329.5V308H355C364.9 308 368.8 308.4 371.1 309.6C374.2 311.1 381.6 321.5 382.6 325.7C383.1 327.5 383.9 328 386.6 328H390V314.5V301H350.5H311V303.8Z" fill="white"/>
<path d="M299.6 525.6C298.6 528.1 298.9 537 300 537C300.5 537 301.7 535.5 302.6 533.7C304.8 529.5 305.6 529 310.8 529H315V546C315 561.7 314.8 563.2 313 565C311.9 566.1 310.3 567 309.5 567C308.7 567 308 567.4 308 568C308 568.6 312 569 318 569C327.7 569 330.8 567.9 325.3 566.5C323.8 566.2 322.2 565.3 321.8 564.7C321.4 564 321 555.7 321 546.2V529H325.4C330.3 529 332.6 530.6 333.6 534.6C333.9 535.9 334.8 537 335.6 537C336.7 537 337 535.4 337 530.5C337 525.5 336.7 524 335.6 524C334.8 524 333.8 524.4 333.5 525C333.1 525.6 326.8 526 318 526C309.2 526 302.9 525.6 302.5 525C301.6 523.5 300.3 523.8 299.6 525.6Z" fill="white"/>
<path d="M14.7 526.4C5.1 530 0 537.4 0 547.9C0 561.8 9 570 24.4 570C34.6 570 36.4 569.2 38.4 563.4C40.6 556.9 38.7 555.9 34.6 561.4C27.8 570.3 15.4 568.5 9.8 557.7C6.8 551.8 6.8 542 9.8 536.3C14.4 527.5 27.2 525.1 33.2 531.9C34.7 533.6 36 535.7 36 536.6C36 537.5 36.6 538 37.3 537.7C38.1 537.4 38.4 535.5 38.2 531.9C38 529 37.7 526.4 37.5 526.1C36.2 524.9 18.2 525.1 14.7 526.4Z" fill="white"/>
<path d="M65.5 526.9C57.3 530.7 53 538 53 548.1C53 555.7 56.4 562.6 62.3 566.7C65.6 569 67.6 569.5 73.5 569.8C81.9 570.3 86.7 568.4 91.8 562.6C99.3 554 98.6 538.5 90.4 530.8C84.2 525 73.3 523.3 65.5 526.9ZM81.9 530.7C91.5 537.7 91.9 559.4 82.6 565.1C72.2 571.5 60.6 561.4 60.6 546C60.6 542 61.2 538.3 62.2 536.5C63.9 533.3 67.5 529.6 70 528.7C72.6 527.6 79.2 528.8 81.9 530.7Z" fill="white"/>
<path d="M261.7 526.4C252.1 530 247 537.4 247 547.9C247 561.8 256 570 271.4 570C281.6 570 283.4 569.2 285.4 563.4C287.6 556.9 285.7 555.9 281.6 561.4C274.8 570.3 262.4 568.5 256.8 557.7C253.8 551.8 253.8 542 256.8 536.3C261.4 527.5 274.2 525.1 280.2 531.9C281.7 533.6 283 535.7 283 536.6C283 537.5 283.6 538 284.3 537.7C285.1 537.4 285.4 535.5 285.2 531.9C285 529 284.7 526.4 284.5 526.1C283.2 524.9 265.2 525.1 261.7 526.4Z" fill="white"/>
<path d="M393.5 526.9C385.3 530.7 381 538 381 548.1C381 555.7 384.4 562.6 390.3 566.7C393.6 569 395.6 569.5 401.5 569.8C409.9 570.3 414.7 568.4 419.8 562.6C427.3 554 426.6 538.5 418.4 530.8C412.2 525 401.3 523.3 393.5 526.9ZM409.9 530.7C419.5 537.7 419.9 559.4 410.6 565.1C400.2 571.5 388.6 561.4 388.6 546C388.6 542 389.2 538.3 390.2 536.5C391.9 533.3 395.5 529.6 398 528.7C400.6 527.6 407.2 528.8 409.9 530.7Z" fill="white"/>
<path d="M111 527.1C111 527.7 111.9 528.4 113.1 528.7C116.3 529.6 117 533 117 547.5C117 562.5 116.3 565.5 112.6 566.4C111.2 566.7 110 567.5 110 568C110 568.6 116.2 569 125.9 569H141.8L142.9 564.6C145.1 555.7 144 554.8 139.2 561.5C136.1 565.9 135.9 566 130.7 566C127.8 566 124.9 565.5 124.2 564.8C123.4 564 123 558.5 123 546.7V529.9L126 528.9C131.3 527 129.2 526 120 526C114.2 526 111 526.4 111 527.1Z" fill="white"/>
<path d="M156 527.1C156 527.7 156.9 528.4 158.1 528.7C161.3 529.6 162 533 162 547.5C162 562.5 161.3 565.5 157.6 566.4C156.2 566.7 155 567.5 155 568C155 568.6 161.2 569 170.9 569H186.8L187.9 564.6C190.1 555.7 189 554.8 184.2 561.5C181.1 565.9 180.9 566 175.7 566C172.8 566 169.9 565.5 169.2 564.8C168.4 564 168 558.5 168 546.7V529.9L171 528.9C176.3 527 174.2 526 165 526C159.2 526 156 526.4 156 527.1Z" fill="white"/>
<path d="M201 526.9C201 527.4 201.9 528.2 203.1 528.5C206.3 529.5 207 533.1 207 547.5C207 562.4 206.2 565.6 202.5 566.6C196.3 568.1 201.2 569 216.5 569H232.9L234 564.7C234.6 562.4 235.3 559.9 235.5 559.2C235.8 558.5 235.1 558 234 558C233 558 231.9 558.8 231.6 559.8C230.2 564.2 227.2 566 221.2 566C218 566 214.9 565.5 214.2 564.8C213.5 564.1 213 560.6 213 556.3V549H218.5C223.5 549 224.1 549.2 225 551.5C226.7 556.1 228 554.2 228 547C228 539.8 226.7 537.9 225 542.5C224.1 544.8 223.5 545 218.5 545H213V537V529H218.9C224.1 529 225.1 529.3 226.9 531.6C228.1 533.1 229 534.9 229 535.6C229 536.4 229.7 537 230.5 537C231.6 537 232 535.9 232 533.1C232 525.8 232.5 526 215.9 526C207.3 526 201 526.4 201 526.9Z" fill="white"/>
<path d="M350 527.1C350 527.7 350.9 528.4 352.1 528.7C355.3 529.6 356 533 356 547.5C356 561.9 355.3 565.5 352.1 566.5C347.5 567.9 350.5 569 359 569C368.2 569 370.3 568 365 566.1L362 565.1V547.5V529.9L365 528.9C370.3 527 368.2 526 359 526C353.2 526 350 526.4 350 527.1Z" fill="white"/>
<path d="M437 526.9C437 527.4 438.4 528.3 440 528.9C441.8 529.5 443.4 531 444 532.5C445.1 535.5 445.3 548.2 444.3 558.4C443.7 564.7 443.5 565.3 440.8 566.2C435.8 568 437.8 569 446.5 569C455.2 569 457.2 568 452.1 566.2C448.3 564.9 447.8 562.2 448.2 547.6L448.5 536.7L462 553.3C469.9 563 476.2 569.9 477.3 570C478.9 570 479 568.4 479 550.7C479 540.2 479.4 531 479.8 530.4C480.2 529.8 481.5 529 482.8 528.6C487.4 527.1 484.7 526 476.5 526C467.7 526 465.8 527 471 528.9C472.7 529.4 474.3 530.5 474.5 531.3C474.8 532 474.9 538.2 474.8 544.9L474.5 557.2L461.5 541.6L448.5 526.1L442.8 526C439.6 526 437 526.4 437 526.9Z" fill="white"/>
</svg>
