<svg height="63" viewBox="0 0 304 321" fill="none" xmlns="http://www.w3.org/2000/svg">
<path d="M218.307 44.7458V50.5725H210.359V133.18C210.359 139.126 205.54 143.946 199.593 143.946H156.845C150.9 143.946 146.08 139.126 146.08 133.18V98.7191H104.133V138.106H112.08V143.946H86.9453V138.106H94.88V50.5725H86.9453V44.7458H112.08V50.5725H104.133V92.8791H146.08V50.5725H138.145V44.7458H163.279V50.5725H155.333V127.662C155.333 132.079 158.915 135.66 163.332 135.66H193.12C197.539 135.66 201.119 132.079 201.119 127.662V50.5725H193.172V44.7458H218.307Z" fill="white"/>
<path d="M252.202 172.932H51.5635V164.519H252.202V172.932Z" fill="white"/>
<path d="M9.72653 311.459H294.038V9.74404H9.72653V311.459ZM303.373 320.792H0.394531V0.410704H303.373V320.792Z" fill="white"/>
<path d="M93.9616 251.479C95.6469 248.435 96.8723 244.988 97.6403 241.14C98.4069 237.293 98.7909 232.995 98.7909 228.243C98.7909 223.359 98.3616 218.876 97.5043 214.792C96.6469 210.712 95.3896 207.232 93.7363 204.355C92.0803 201.511 90.0056 199.293 87.5083 197.704C85.0109 196.116 82.1523 195.32 78.9336 195.32C75.3229 195.32 72.2549 196.241 69.7269 198.081C67.2002 199.921 65.1389 202.38 63.5443 205.459C62.0403 208.403 60.9189 211.849 60.1829 215.796C59.4443 219.745 59.0763 223.895 59.0763 228.243C59.0763 233.061 59.4669 237.411 60.2496 241.291C61.0322 245.173 62.2656 248.617 63.9509 251.629C65.5749 254.573 67.6216 256.873 70.0882 258.529C72.5549 260.185 75.5043 261.013 78.9336 261.013C82.1523 261.013 85.0549 260.177 87.6429 258.505C90.2309 256.832 92.3376 254.491 93.9616 251.479ZM100.686 200.991C103.514 204.271 105.724 208.228 107.32 212.861C108.914 217.496 109.712 222.621 109.712 228.243C109.712 233.897 108.9 239.033 107.275 243.649C105.651 248.267 103.394 252.199 100.506 255.444C97.7083 258.656 94.4589 261.131 90.7576 262.871C87.0563 264.611 83.1149 265.48 78.9336 265.48C74.4803 265.48 70.3656 264.552 66.5909 262.695C62.8149 260.839 59.5722 258.253 56.8656 254.943C54.1576 251.696 52.0283 247.757 50.4789 243.123C48.9296 238.489 48.1562 233.529 48.1562 228.243C48.1562 222.455 48.9669 217.295 50.5922 212.761C52.2162 208.228 54.4576 204.304 57.3163 200.991C60.1443 197.713 63.4323 195.203 67.1776 193.464C70.9229 191.724 74.8416 190.853 78.9336 190.853C83.1763 190.853 87.1762 191.741 90.9376 193.513C94.6989 195.287 97.9483 197.78 100.686 200.991Z" fill="white"/>
<path d="M187.797 196.123C186.954 196.157 185.66 196.425 183.916 196.927C182.17 197.429 180.922 197.947 180.169 198.482C179.088 199.319 178.357 200.925 177.982 203.299C177.604 205.677 177.417 208.689 177.417 212.334V264.478H173.492L134.68 206.211V242.947C134.68 247.062 134.913 250.225 135.38 252.431C135.846 254.641 136.56 256.213 137.522 257.15C138.214 257.886 139.644 258.573 141.81 259.207C143.977 259.843 145.405 260.178 146.098 260.21V263.774H119.832V260.21C120.645 260.145 122.013 259.818 123.938 259.233C125.864 258.649 127.068 258.121 127.549 257.651C128.602 256.715 129.325 255.285 129.716 253.361C130.106 251.437 130.302 248.151 130.302 243.499V208.421C130.302 206.881 130.061 205.342 129.58 203.802C129.098 202.263 128.452 201.075 127.64 200.238C126.557 199.134 125.09 198.19 123.24 197.403C121.389 196.618 119.892 196.191 118.749 196.123V192.561H137.045L173.04 246.851V212.985C173.04 208.835 172.798 205.649 172.318 203.423C171.836 201.199 171.145 199.719 170.241 198.983C169.4 198.347 168.022 197.73 166.113 197.127C164.201 196.525 162.75 196.191 161.757 196.123V192.561H187.797V196.123Z" fill="white"/>
<path d="M251.171 242.797L249.952 263.774H196.791V260.211C197.694 260.145 198.896 260.002 200.4 259.785C201.906 259.567 202.883 259.342 203.334 259.107C204.298 258.605 204.966 257.953 205.343 257.15C205.718 256.347 205.907 255.326 205.907 254.089V202.899C205.907 201.795 205.742 200.815 205.411 199.963C205.079 199.11 204.387 198.415 203.334 197.879C202.522 197.446 201.431 197.061 200.063 196.726C198.694 196.391 197.603 196.191 196.791 196.123V192.561H246.343V209.725H242.958C242.356 207.182 241.055 204.479 239.054 201.619C237.052 198.758 235.15 197.195 233.346 196.927C232.412 196.794 231.299 196.693 230.006 196.626C228.711 196.559 227.238 196.525 225.583 196.525H215.519V224.83H222.74C225.056 224.83 226.75 224.589 227.816 224.102C228.884 223.618 229.824 222.807 230.638 221.669C231.299 220.699 231.863 219.402 232.33 217.779C232.796 216.158 233.104 214.626 233.254 213.187H236.64V241.091H233.254C233.135 239.485 232.81 237.787 232.284 235.997C231.758 234.207 231.208 232.91 230.638 232.107C229.704 230.803 228.643 229.949 227.456 229.547C226.267 229.147 224.696 228.945 222.74 228.945H215.519V250.29C215.519 252.429 215.654 254.114 215.924 255.35C216.196 256.586 216.722 257.522 217.504 258.157C218.287 258.791 219.355 259.201 220.708 259.383C222.063 259.567 223.987 259.659 226.486 259.659H230.412C232.036 259.659 233.406 259.593 234.519 259.458C235.662 259.325 236.843 259.082 238.062 258.73C239.28 258.381 240.143 257.903 240.656 257.301C242.039 255.695 243.491 253.261 245.011 249.998C246.531 246.737 247.5 244.335 247.922 242.797H251.171Z" fill="white"/>
</svg>
