<svg width="166" height="108" viewBox="0 0 83 54" fill="none" xmlns="http://www.w3.org/2000/svg">
<path d="M19.8097 38.8118L21.0467 40.003C20.6367 40.4523 20.1336 40.8195 19.568 41.0824C19.0022 41.3453 18.3855 41.4985 17.7548 41.5329C17.1241 41.5673 16.4925 41.4821 15.8979 41.2823C15.3033 41.0827 14.7581 40.7727 14.295 40.3709C13.8702 39.9865 13.5358 39.5235 13.3132 39.0114C13.0905 38.4994 12.9845 37.9496 13.0018 37.3971C12.9874 36.8398 13.0969 36.2857 13.3236 35.77C13.5502 35.2543 13.889 34.7882 14.3184 34.4013C14.7409 34.0091 15.2438 33.7006 15.7969 33.4944C16.35 33.2882 16.942 33.1885 17.5373 33.2013C18.2128 33.1914 18.8822 33.3218 19.4971 33.5831C20.1122 33.8444 20.6574 34.2301 21.0935 34.7123L19.8941 35.9824C19.6313 35.6507 19.2887 35.3815 18.8939 35.1965C18.4991 35.0116 18.0632 34.9162 17.6217 34.9182C16.928 34.9032 16.2555 35.1421 15.7475 35.5839C15.4895 35.8135 15.2873 36.0923 15.1547 36.4013C15.0221 36.7104 14.9622 37.0426 14.9791 37.3752C14.9629 37.7063 15.019 38.037 15.1438 38.3472C15.2687 38.6574 15.4597 38.9406 15.7053 39.1797C15.9343 39.4002 16.2091 39.5746 16.5129 39.6921C16.8167 39.8097 17.143 39.8677 17.4717 39.8629C17.9227 39.8736 18.3699 39.7838 18.7764 39.6011C19.183 39.4183 19.5372 39.1478 19.8097 38.8118Z" fill="#212121"/>
<path d="M28.2052 39.3718C28.5423 38.9251 28.7075 38.3847 28.6738 37.839V33.3848H30.6042V37.9003C30.6388 38.392 30.5643 38.8851 30.3853 39.3487C30.2063 39.8122 29.9266 40.2361 29.564 40.5938C28.831 41.2018 27.885 41.5376 26.905 41.5376C25.925 41.5376 24.979 41.2018 24.246 40.5938C23.8829 40.2372 23.6026 39.8142 23.4227 39.3514C23.243 38.8886 23.1675 38.396 23.2012 37.9046V33.3848H25.1457V37.839C25.1096 38.385 25.275 38.926 25.6142 39.3718C25.7738 39.5473 25.9724 39.6882 26.1961 39.7849C26.4198 39.8816 26.6632 39.9316 26.9097 39.9316C27.1561 39.9316 27.3996 39.8816 27.6233 39.7849C27.847 39.6882 28.0455 39.5473 28.2052 39.3718Z" fill="#212121"/>
<path d="M40.2438 38.8116L41.4807 40.0029C41.0706 40.4522 40.5677 40.8193 40.0019 41.0822C39.4363 41.3451 38.8195 41.4983 38.1888 41.5327C37.5581 41.5671 36.9265 41.4818 36.3319 41.2822C35.7373 41.0825 35.1921 40.7725 34.729 40.3708C34.3048 39.9861 33.9711 39.5229 33.7493 39.0109C33.5274 38.4988 33.4222 37.9491 33.4405 37.3969C33.4252 36.8399 33.5339 36.2859 33.7597 35.7702C33.9855 35.2544 34.3236 34.7882 34.7524 34.4012C35.1755 34.0097 35.6786 33.7018 36.2315 33.4956C36.7845 33.2895 37.3761 33.1893 37.9713 33.2011C38.6476 33.1906 39.3179 33.3207 39.9337 33.5821C40.5495 33.8434 41.0955 34.2293 41.5322 34.7122L40.3328 35.9823C40.0701 35.6505 39.7273 35.3812 39.3326 35.1964C38.9378 35.0115 38.5019 34.9161 38.0603 34.918C37.3665 34.9021 36.6936 35.1411 36.1861 35.5837C35.9268 35.8126 35.7234 36.0911 35.5899 36.4003C35.4565 36.7095 35.3962 37.042 35.4131 37.375C35.3967 37.7065 35.4531 38.0376 35.5788 38.348C35.7045 38.6583 35.8969 38.9413 36.144 39.1795C36.3725 39.4007 36.6472 39.5755 36.9511 39.6931C37.255 39.8106 37.5816 39.8684 37.9104 39.8628C38.3607 39.8734 38.8072 39.7836 39.213 39.6008C39.6188 39.418 39.9721 39.1475 40.2438 38.8116Z" fill="#212121"/>
<path d="M47.4203 41.4566H45.4946V34.9439H43.0488V33.3848H49.8708V34.9439H47.4203V41.4566Z" fill="#212121"/>
<path d="M58.8012 34.9877H54.5V36.6521H58.3701V38.1893H54.5V39.8668H58.9371V41.461H52.5742V33.3848H58.8012V34.9877Z" fill="#212121"/>
<path d="M67.5719 41.4762L65.4839 38.6697L63.4328 41.4762H61.1348L64.3348 37.3646L61.2953 33.3916H63.5687L65.558 36.0133L67.5102 33.3916H69.6724L66.6576 37.2954L69.8824 41.4762H67.5719Z" fill="#212121"/>
<path d="M42.4823 6.05949C42.5481 6.11388 42.6169 6.16505 42.6884 6.21279C42.815 6.28286 42.8852 6.26534 42.8712 6.21279C42.8571 6.16023 42.4589 5.97628 42.4401 6.00255C42.4213 6.02883 42.4823 6.03759 42.4823 6.05949Z" fill="#008037"/>
<path d="M42.6131 6.45325C42.5842 6.47368 42.5616 6.50087 42.5475 6.53208C42.5266 6.56999 42.5156 6.61204 42.5156 6.65471C42.5156 6.69739 42.5266 6.73944 42.5475 6.77735C42.5712 6.80476 42.6028 6.82523 42.6387 6.83631C42.6744 6.84739 42.7129 6.84862 42.7495 6.83985C42.786 6.83108 42.819 6.81269 42.8447 6.78685C42.8704 6.76102 42.8876 6.72883 42.8942 6.69413C42.9505 6.54084 42.7396 6.37879 42.6131 6.45325Z" fill="#008037"/>
<path d="M41.7065 7.57073C41.744 7.74592 42.1141 7.65832 42.2874 7.43496C42.4608 7.21159 42.3531 7.0802 42.1563 7.11086C42.0611 7.13432 41.973 7.17776 41.8986 7.23787C41.6971 7.41744 41.7018 7.53569 41.7065 7.57073Z" fill="#008037"/>
<path d="M40.9614 8.43797C41.2238 8.22774 41.266 8 41.0457 8C40.875 8.00925 40.7114 8.06735 40.5772 8.16642C40.2539 8.38979 40.2305 8.54747 40.2305 8.57374C40.2352 8.77083 40.6475 8.69638 40.9614 8.43797Z" fill="#008037"/>
<path d="M39.0719 9.68158C39.4608 9.43194 39.6341 9.12097 39.3999 9.08594C39.1922 9.08849 38.9919 9.15813 38.833 9.28303C38.4441 9.53267 38.3644 9.721 38.3644 9.76041C38.3316 9.96626 38.6924 9.92685 39.0719 9.68158Z" fill="#008037"/>
<path d="M36.8598 11.1049C37.3564 10.8246 37.661 10.3954 37.3893 10.3516C37.163 10.3568 36.9459 10.4358 36.7755 10.5749C36.3537 10.8552 36.2741 11.0567 36.2601 11.1136C36.2179 11.3151 36.499 11.3107 36.8598 11.1049Z" fill="#008037"/>
<path d="M34.6343 12.6426C35.1544 12.3447 35.5198 11.8279 35.2434 11.7666C35.1825 11.7666 34.9997 11.7666 34.6249 12.0075C34.3897 12.1485 34.2103 12.3577 34.1142 12.6032C34.0486 12.8265 34.2922 12.8353 34.6343 12.6426Z" fill="#008037"/>
<path d="M32.5828 14.2718C33.0186 13.9739 33.4075 13.3958 33.1404 13.3389C33.0795 13.3389 32.9108 13.3389 32.5688 13.606C32.344 13.7673 32.1799 13.9913 32.1002 14.2455C32.0721 14.4645 32.2783 14.4645 32.5828 14.2718Z" fill="#008037"/>
<path d="M30.7988 16.0458C31.1877 15.7305 31.5344 15.0297 31.2439 15.0166C31.1784 15.0166 31.0378 15.0472 30.7754 15.3013C30.5901 15.4902 30.4694 15.7266 30.4287 15.9801C30.4287 16.2166 30.574 16.2166 30.7988 16.0458Z" fill="#008037"/>
<path d="M29.8007 16.79C29.7492 16.79 29.6414 16.8251 29.4821 17.0923C29.3586 17.3111 29.2927 17.5543 29.29 17.8018C29.29 17.9988 29.3791 18.0471 29.4962 17.9332C29.7726 17.666 30.0444 16.8076 29.8007 16.79Z" fill="#008037"/>
<path d="M28.9231 18.6337C28.8857 18.6337 28.8341 18.7082 28.7826 18.9359C28.7417 19.165 28.7417 19.3988 28.7826 19.6279C28.7826 19.6848 28.8341 19.8732 28.895 19.79C29.0122 19.6323 29.1152 18.5812 28.9231 18.6337Z" fill="#008037"/>
<path d="M43.7239 6.27415C43.9489 6.36175 43.9254 6.31357 43.9208 6.30919C43.7012 6.1787 43.4558 6.09081 43.1992 6.05078L43.3257 6.10334C43.4569 6.16466 43.5881 6.22598 43.7239 6.27415Z" fill="#008037"/>
<path d="M44.2311 6.37033C44.2919 6.40536 44.4934 6.52362 44.6293 6.58931C44.7652 6.65501 44.8588 6.66814 44.8495 6.63311C44.6506 6.45401 44.3996 6.33367 44.1279 6.28711C44.1279 6.28711 44.1373 6.30901 44.2311 6.37033Z" fill="#008037"/>
<path d="M45.1972 6.70768C45.3202 6.80808 45.4519 6.8989 45.5908 6.97923C45.7642 7.07558 45.8438 7.0712 45.8251 7.01864C45.643 6.8081 45.3877 6.66395 45.1035 6.61133C45.1035 6.61133 45.1597 6.67702 45.1972 6.70768Z" fill="#008037"/>
<path d="M46.5789 7.45672C46.757 7.57059 46.8413 7.56621 46.832 7.50489C46.7898 7.30781 46.1385 6.95305 46.1104 7.01874C46.0822 7.08444 46.1619 7.10634 46.1947 7.137C46.3114 7.25498 46.44 7.36206 46.5789 7.45672Z" fill="#008037"/>
<path d="M47.5858 7.96927C47.7638 8.10066 47.8482 8.09628 47.8388 8.02182C47.8154 7.83349 47.2203 7.40428 47.136 7.46121C47.0517 7.51815 47.1782 7.56633 47.2063 7.60575C47.3183 7.73939 47.4456 7.86128 47.5858 7.96927Z" fill="#008037"/>
<path d="M48.5734 8.56473C48.7421 8.70926 48.8311 8.70488 48.8217 8.62605C48.8217 8.41144 48.2221 7.92966 48.1377 7.99536C48.0534 8.06106 48.1752 8.11362 48.2033 8.15741C48.3091 8.30637 48.4333 8.44309 48.5734 8.56473Z" fill="#008037"/>
<path d="M49.5576 9.20861C49.7123 9.34876 49.7966 9.35753 49.8013 9.29183C49.8013 9.06408 49.2015 8.52537 49.1406 8.58231C49.0798 8.63925 49.1781 8.7137 49.2063 8.7575C49.3044 8.92 49.4223 9.07137 49.5576 9.20861Z" fill="#008037"/>
<path d="M50.4902 9.93102C50.6307 10.0887 50.7104 10.0975 50.7104 10.023C50.7104 9.77335 50.1387 9.18647 50.0825 9.25216C50.0263 9.31786 50.1247 9.39669 50.1481 9.44487C50.2406 9.61928 50.3555 9.78253 50.4902 9.93102Z" fill="#008037"/>
<path d="M51.3518 10.6977C51.4595 10.8335 51.5392 10.8817 51.5486 10.8116C51.4555 10.4771 51.2503 10.1793 50.9629 9.96191C50.9348 9.96191 51.0004 10.1108 51.0285 10.1765C51.1177 10.3598 51.226 10.5343 51.3518 10.6977Z" fill="#008037"/>
<path d="M52.1295 11.5169C52.2186 11.6439 52.2842 11.6964 52.2982 11.6526C52.2126 11.3024 52.0225 10.9819 51.75 10.7285C51.75 10.7504 51.75 10.8074 51.8297 10.9606C51.9175 11.1516 52.0176 11.3373 52.1295 11.5169Z" fill="#008037"/>
<path d="M52.8981 12.6594C52.9777 12.7952 53.0386 12.8521 53.0574 12.8083C52.997 12.4561 52.8349 12.126 52.5889 11.8535C52.5889 11.8535 52.5889 11.9324 52.6497 12.09C52.7185 12.2849 52.8015 12.4751 52.8981 12.6594Z" fill="#008037"/>
<path d="M43.3789 6.50645C43.5148 6.59405 43.6226 6.58091 43.6039 6.50645C43.5851 6.432 43.1822 6.17359 43.1353 6.23491C43.0884 6.29623 43.1353 6.28308 43.1587 6.3006C43.2202 6.37957 43.2945 6.44903 43.3789 6.50645Z" fill="#008037"/>
<path d="M43.9411 6.6152C43.9874 6.7163 44.0599 6.80508 44.1519 6.8736C44.3018 6.98748 44.4283 6.96558 44.4237 6.8736C44.4237 6.7028 43.9926 6.46191 43.9551 6.53199C43.9176 6.60206 43.927 6.58016 43.9411 6.6152Z" fill="#008037"/>
<path d="M45.0034 7.32035C45.172 7.45613 45.322 7.42108 45.3032 7.28969C45.2798 7.08823 44.8815 6.82106 44.7925 6.90428C44.7035 6.98749 44.7925 6.98749 44.7925 7.01377C44.8364 7.12988 44.9086 7.23485 45.0034 7.32035Z" fill="#008037"/>
<path d="M45.7216 7.35627C45.6888 7.38693 45.7216 7.44825 45.7216 7.4789C45.7581 7.61211 45.8307 7.73427 45.9324 7.83366C46.1105 7.99133 46.2698 7.94753 46.2604 7.803C46.2323 7.56212 45.8247 7.25992 45.7216 7.35627Z" fill="#008037"/>
<path d="M46.6994 7.89448C46.6572 7.92951 46.6666 8.00398 46.6713 8.03463C46.6993 8.18273 46.7707 8.32067 46.8774 8.43319C47.0555 8.60837 47.2289 8.5602 47.2241 8.39814C47.2101 8.10908 46.7977 7.76746 46.6994 7.89448Z" fill="#008037"/>
<path d="M47.6843 8.44656C47.628 8.4816 47.6327 8.56919 47.6373 8.613C47.6586 8.77314 47.7266 8.92471 47.8342 9.05097C48.0075 9.23492 48.1715 9.19988 48.1902 9.05097C48.2324 8.77067 47.8295 8.35897 47.6843 8.44656Z" fill="#008037"/>
<path d="M48.6688 9.09049C48.6126 9.1299 48.6173 9.22626 48.6173 9.27444C48.6309 9.44752 48.6976 9.61329 48.8094 9.75184C48.9734 9.94892 49.1374 9.90951 49.1655 9.75184C49.2077 9.44087 48.8187 8.99413 48.6688 9.09049Z" fill="#008037"/>
<path d="M49.6334 9.79092C49.5771 9.83473 49.5771 9.93984 49.5771 9.99239C49.5909 10.1742 49.652 10.3502 49.7552 10.5048C49.9192 10.7194 50.0785 10.6756 50.1066 10.5048C50.1535 10.172 49.7786 9.69019 49.6334 9.79092Z" fill="#008037"/>
<path d="M50.5742 10.5227C50.5039 10.5533 50.5039 10.6935 50.5039 10.746C50.5079 10.9372 50.5644 11.1242 50.6679 11.2891C50.8038 11.4994 50.9537 11.4775 50.9912 11.3154C51.0708 11.0132 50.7382 10.4657 50.5742 10.5227Z" fill="#008037"/>
<path d="M51.4367 11.3463C51.3758 11.3813 51.3711 11.5258 51.3711 11.5828C51.3775 11.7826 51.4269 11.9793 51.5163 12.1609C51.6335 12.3667 51.7647 12.3536 51.8115 12.2178C51.9193 11.9025 51.5913 11.2631 51.4367 11.3463Z" fill="#008037"/>
<path d="M52.2391 12.1953C52.1688 12.1953 52.1641 12.3837 52.1641 12.445C52.1643 12.6536 52.2072 12.8602 52.2906 13.0537C52.389 13.2552 52.4968 13.2552 52.5436 13.1414C52.6654 12.8523 52.3937 12.1515 52.2391 12.1953Z" fill="#008037"/>
<path d="M53.1698 14.1054C53.301 13.8383 53.0527 13.0499 52.9215 13.0893C52.8653 13.0893 52.8606 13.2864 52.8606 13.3521C52.8571 13.5677 52.892 13.7823 52.9636 13.9872C53.0293 14.1624 53.1183 14.2105 53.1698 14.1054Z" fill="#008037"/>
<path d="M53.6812 15.0991C53.8124 14.8625 53.5968 13.9822 53.4938 14.026C53.3907 14.0698 53.4469 14.2275 53.4469 14.2975C53.4458 14.5185 53.471 14.7388 53.5219 14.9545C53.5735 15.1254 53.6344 15.1823 53.6812 15.0991Z" fill="#008037"/>
<path d="M53.9808 15.8966C53.948 15.6032 53.8683 15.2966 53.8308 15.3185C53.8039 15.4111 53.7944 15.5075 53.8027 15.6032C53.7968 15.8289 53.8125 16.0546 53.8496 16.2777C53.8777 16.4353 53.9199 16.501 53.9573 16.4441C54.0101 16.2657 54.0181 16.0784 53.9808 15.8966Z" fill="#008037"/>
<path d="M43.5789 7.10591C43.6164 6.92196 43.3916 6.72487 43.2463 6.81247C43.2109 6.83723 43.1834 6.87055 43.1666 6.90883C43.1412 6.95407 43.1279 7.00443 43.1279 7.05555C43.1279 7.10667 43.1412 7.15702 43.1666 7.20227C43.1922 7.23886 43.2293 7.26709 43.2729 7.28304C43.3164 7.29899 43.3641 7.30186 43.4095 7.29127C43.4549 7.28067 43.4955 7.25712 43.5259 7.2239C43.5563 7.19069 43.5748 7.14944 43.5789 7.10591Z" fill="#008037"/>
<path d="M44.3579 7.58794C44.4047 7.36457 44.1611 7.14997 43.9877 7.24632C43.9466 7.27437 43.9143 7.31217 43.894 7.35582C43.8649 7.40863 43.8496 7.46719 43.8496 7.52663C43.8496 7.58606 43.8649 7.64463 43.894 7.69744C43.921 7.74145 43.9625 7.77603 44.0124 7.79587C44.0623 7.81572 44.1178 7.81974 44.1704 7.80733C44.223 7.79491 44.2698 7.76675 44.3036 7.72713C44.3375 7.68751 44.3566 7.63863 44.3579 7.58794Z" fill="#008037"/>
<path d="M44.6903 7.89422C44.6589 7.9542 44.6426 8.02012 44.6426 8.08692C44.6426 8.15373 44.6589 8.21964 44.6903 8.27964C44.7237 8.31648 44.7677 8.34351 44.8171 8.35746C44.8665 8.37142 44.9191 8.3717 44.9687 8.35826C45.0183 8.34482 45.0626 8.31825 45.0963 8.28175C45.1302 8.24526 45.1518 8.2004 45.1589 8.15262C45.2104 7.90297 44.9434 7.64895 44.7513 7.76721C44.7199 7.80408 44.6989 7.84776 44.6903 7.89422Z" fill="#008037"/>
<path d="M46.0957 8.7702C46.1567 8.48552 45.8802 8.20521 45.6693 8.33222C45.6199 8.36942 45.5813 8.41761 45.5569 8.47238C45.5242 8.54208 45.5093 8.61793 45.5133 8.69395C45.5174 8.76996 45.5403 8.84406 45.5803 8.91036C45.7256 9.09869 46.0348 9.01546 46.0957 8.7702Z" fill="#008037"/>
<path d="M47.0232 9.46229C47.1169 9.15571 46.8545 8.81409 46.6156 8.93672C46.5518 8.97771 46.5029 9.03571 46.475 9.10315C46.4362 9.17593 46.416 9.25615 46.416 9.33746C46.416 9.41878 46.4362 9.49899 46.475 9.57179C46.639 9.79077 46.9388 9.72507 47.0232 9.46229Z" fill="#008037"/>
<path d="M47.9755 10.1941C48.0785 9.86562 47.8115 9.49334 47.5678 9.62473C47.5002 9.6705 47.4494 9.73478 47.4226 9.80868C47.3835 9.88762 47.3633 9.97355 47.3633 10.0605C47.3633 10.1475 47.3835 10.2334 47.4226 10.3124C47.5772 10.5445 47.8864 10.4744 47.9755 10.1941Z" fill="#008037"/>
<path d="M48.921 10.9601C49.0335 10.6053 48.7711 10.2111 48.5228 10.3513C48.454 10.4025 48.402 10.4708 48.3728 10.5484C48.3318 10.633 48.3105 10.7248 48.3105 10.8177C48.3105 10.9106 48.3318 11.0025 48.3728 11.0871C48.518 11.3499 48.8273 11.2754 48.921 10.9601Z" fill="#008037"/>
<path d="M49.8309 11.8367C49.9714 11.4776 49.7559 11.0221 49.4935 11.136C49.4062 11.1858 49.3413 11.2637 49.3108 11.355C49.2323 11.5392 49.2323 11.7445 49.3108 11.9287C49.4326 12.1871 49.7137 12.1389 49.8309 11.8367Z" fill="#008037"/>
<path d="M50.6874 12.7785C50.8654 12.4062 50.6593 11.9025 50.425 11.9857C50.3078 12.0207 50.2376 12.174 50.2141 12.2265C50.1357 12.4199 50.1357 12.6333 50.2141 12.8266C50.3078 13.0675 50.5561 13.0412 50.6874 12.7785Z" fill="#008037"/>
<path d="M51.4991 13.6983C51.6818 13.3129 51.4991 12.7961 51.2742 12.8705C51.1617 12.9099 51.0914 13.0676 51.068 13.1246C50.9837 13.3258 50.9722 13.5473 51.0352 13.7552C51.1289 14.0268 51.3866 13.9742 51.4991 13.6983Z" fill="#008037"/>
<path d="M52.0703 13.7895C51.9485 13.7895 51.8735 13.9997 51.8454 14.061C51.7596 14.2689 51.74 14.4956 51.7892 14.7136C51.8595 14.9413 52.0422 14.9545 52.1827 14.7399C52.417 14.3807 52.3233 13.7544 52.0703 13.7895Z" fill="#008037"/>
<path d="M52.7438 14.7529C52.636 14.7529 52.5564 14.9675 52.5283 15.0332C52.4407 15.248 52.4132 15.4802 52.4486 15.7077C52.5048 15.9486 52.6641 15.931 52.7812 15.7734C53.039 15.4186 52.964 14.7091 52.7438 14.7529Z" fill="#008037"/>
<path d="M53.3126 15.7478C53.2143 15.7478 53.1346 15.9712 53.1065 16.0368C53.0172 16.2574 52.9803 16.4936 52.9988 16.7289C53.0269 16.9391 53.144 16.9785 53.2658 16.8296C53.5329 16.4967 53.5188 15.704 53.3126 15.7478Z" fill="#008037"/>
<path d="M53.5912 17.9326C53.8676 17.6786 53.9379 16.7807 53.7598 16.7676C53.7036 16.7676 53.6333 16.8639 53.5536 17.0698C53.4645 17.2973 53.417 17.5371 53.4131 17.7793C53.4225 17.9676 53.4928 18.0202 53.5912 17.9326Z" fill="#008037"/>
<path d="M53.8402 18.1611C53.7746 18.1611 53.681 18.3888 53.6529 18.4677C53.5579 18.6934 53.4995 18.9311 53.4795 19.1728C53.4795 19.3305 53.517 19.3962 53.5919 19.3393C53.8449 19.1465 53.9902 18.1787 53.8402 18.1611Z" fill="#008037"/>
<path d="M42.7176 7.60119C42.6238 7.62804 42.5385 7.67619 42.4693 7.74134C42.2632 7.9428 42.2819 8.07858 42.2913 8.118C42.3522 8.32822 42.7598 8.20997 42.9379 7.93405C43.1159 7.65812 42.9519 7.54425 42.7176 7.60119Z" fill="#008037"/>
<path d="M43.3775 8.16224C43.2886 8.19269 43.2096 8.24396 43.148 8.31115C42.9324 8.53452 42.9652 8.68781 42.9793 8.74913C43.0589 8.98125 43.5181 8.84549 43.6727 8.54767C43.8273 8.24984 43.6306 8.07465 43.3775 8.16224Z" fill="#008037"/>
<path d="M43.7523 9.39671C43.8508 9.65074 44.3287 9.50621 44.4786 9.17773C44.6285 8.84925 44.4224 8.67843 44.1553 8.77479C44.0628 8.81404 43.9798 8.8707 43.9117 8.94122C43.6915 9.20839 43.7336 9.35292 43.7523 9.39671Z" fill="#008037"/>
<path d="M44.5904 10.1238C44.6981 10.3822 45.1526 10.2596 45.3307 9.92675C45.5087 9.59389 45.3307 9.35739 45.0355 9.4406C44.9231 9.47681 44.824 9.54212 44.7497 9.62893C44.6794 9.69135 44.6277 9.76983 44.5998 9.85663C44.5719 9.94342 44.5686 10.0355 44.5904 10.1238Z" fill="#008037"/>
<path d="M45.4829 10.903C45.5953 11.179 46.0592 11.0476 46.2419 10.6928C46.4246 10.3381 46.2419 10.084 45.9327 10.1672C45.8159 10.2091 45.7138 10.2804 45.6375 10.3731C45.5668 10.4425 45.5155 10.5273 45.4886 10.6198C45.4616 10.7123 45.4596 10.8096 45.4829 10.903Z" fill="#008037"/>
<path d="M46.4 11.731C46.5125 12.0201 46.9857 11.8799 47.1684 11.5076C47.3512 11.1354 47.1684 10.8594 46.8545 10.9514C46.7342 10.9962 46.6303 11.0722 46.5547 11.1704C46.4811 11.2445 46.4285 11.3346 46.4015 11.4324C46.3745 11.5303 46.374 11.6329 46.4 11.731Z" fill="#008037"/>
<path d="M47.3237 12.6074C47.4268 12.8965 47.8625 12.787 48.0733 12.4147C48.2842 12.0424 48.1109 11.6789 47.7923 11.784C47.6688 11.8321 47.5619 11.9108 47.483 12.0118C47.4076 12.092 47.3538 12.1879 47.3261 12.2916C47.2984 12.3952 47.2976 12.5034 47.3237 12.6074Z" fill="#008037"/>
<path d="M48.2313 13.5179C48.3297 13.8201 48.7607 13.7062 48.9762 13.3209C49.1917 12.9355 49.0277 12.55 48.7091 12.6595C48.5837 12.7088 48.4774 12.7928 48.4046 12.9004C48.3288 12.985 48.274 13.0843 48.244 13.191C48.214 13.2978 48.2097 13.4094 48.2313 13.5179Z" fill="#008037"/>
<path d="M49.1075 14.464C49.1918 14.7574 49.576 14.6741 49.8056 14.3106C50.0352 13.9471 49.9462 13.4829 49.6322 13.553C49.4914 13.6046 49.3717 13.6966 49.2902 13.8158C49.2126 13.9056 49.1561 14.0099 49.1246 14.1216C49.0931 14.2333 49.0873 14.35 49.1075 14.464Z" fill="#008037"/>
<path d="M49.9223 15.4584C49.9879 15.7431 50.3253 15.6861 50.5643 15.3533C50.8547 14.9504 50.7891 14.4335 50.4659 14.5167C50.324 14.5713 50.2043 14.6663 50.1238 14.7883C49.968 14.9796 49.8959 15.2192 49.9223 15.4584Z" fill="#008037"/>
<path d="M51.2405 16.4131C51.5732 15.997 51.5357 15.4627 51.2405 15.4977C51.0718 15.4977 50.9219 15.7211 50.875 15.7868C50.7153 15.9837 50.6371 16.2279 50.6548 16.4744C50.711 16.746 51.0015 16.7153 51.2405 16.4131Z" fill="#008037"/>
<path d="M51.3096 17.5303C51.3377 17.7887 51.5766 17.7843 51.8109 17.5303C52.1716 17.1186 52.1904 16.5054 51.914 16.5405C51.7593 16.5405 51.6047 16.7682 51.5579 16.8383C51.4021 17.0402 51.3155 17.2815 51.3096 17.5303Z" fill="#008037"/>
<path d="M52.4911 17.5566C52.4255 17.5566 52.3036 17.6048 52.1163 17.8632C51.9566 18.0717 51.861 18.3171 51.8398 18.5727C51.8398 18.7961 52.0132 18.8267 52.2193 18.6384C52.6035 18.2924 52.7394 17.5697 52.4911 17.5566Z" fill="#008037"/>
<path d="M52.9095 18.6123C52.8486 18.6123 52.7361 18.6561 52.5487 18.9101C52.3887 19.1159 52.2842 19.3549 52.2441 19.6065C52.2441 19.808 52.3566 19.8474 52.5394 19.7028C52.9376 19.3875 53.1485 18.6255 52.9095 18.6123Z" fill="#008037"/>
<path d="M53.1846 19.6455C53.1096 19.6455 52.9925 19.7375 52.8425 19.939C52.6826 20.1403 52.5679 20.3697 52.5052 20.6134C52.477 20.793 52.5661 20.8456 52.7207 20.7317C53.1096 20.4601 53.3954 19.6587 53.1846 19.6455Z" fill="#008037"/>
<path d="M40.774 9.20837C40.774 9.44049 41.2847 9.331 41.5986 9.0288C41.8329 8.80105 41.8329 8.59082 41.5986 8.59082C41.4254 8.6036 41.2612 8.66809 41.1301 8.77477C40.7881 9.01566 40.7693 9.18209 40.774 9.20837Z" fill="#008037"/>
<path d="M42.1886 9.25648C42.033 9.29274 41.8876 9.35997 41.7622 9.45357C41.4249 9.71197 41.4155 9.89154 41.4249 9.93971C41.4577 10.2025 42.0481 10.0536 42.3385 9.70321C42.5634 9.43605 42.4838 9.2083 42.1886 9.25648Z" fill="#008037"/>
<path d="M42.4843 10.1851C42.1469 10.4611 42.1516 10.6538 42.161 10.7063C42.2125 10.9954 42.8123 10.8334 43.0981 10.4567C43.3183 10.1676 43.2293 9.92674 42.9153 9.97492C42.7564 10.0134 42.609 10.0853 42.4843 10.1851Z" fill="#008037"/>
<path d="M43.0023 11.5257C43.0679 11.8279 43.6864 11.6571 43.9722 11.2541C44.1924 10.9519 44.0893 10.6935 43.7707 10.7461C43.5961 10.7802 43.4344 10.8574 43.3022 10.9695C42.9789 11.2629 42.9883 11.4687 43.0023 11.5257Z" fill="#008037"/>
<path d="M43.8893 12.3836C43.9644 12.7034 44.5875 12.5238 44.8733 12.1033C45.0982 11.7792 44.9858 11.5077 44.6578 11.5603C44.4817 11.6008 44.3202 11.6839 44.1892 11.8011C43.8472 12.1121 43.8893 12.3267 43.8893 12.3836Z" fill="#008037"/>
<path d="M44.7844 13.2906C44.8641 13.6191 45.4966 13.4307 45.7824 12.9927C46.0167 12.6336 45.8714 12.3401 45.506 12.4365C45.351 12.487 45.2101 12.5693 45.0937 12.6774C44.7516 13.0015 44.7703 13.2293 44.7844 13.2906Z" fill="#008037"/>
<path d="M45.7012 14.2321C45.7715 14.5605 46.3478 14.4073 46.6383 13.9781C46.9007 13.6146 46.8023 13.2685 46.4509 13.3343C46.2731 13.3804 46.1115 13.4695 45.9823 13.5926C45.6637 13.9342 45.6825 14.1708 45.7012 14.2321Z" fill="#008037"/>
<path d="M46.6019 15.2136C46.6676 15.5509 47.2391 15.3888 47.539 14.9465C47.8061 14.5698 47.7124 14.2107 47.3656 14.2764C47.1864 14.3262 47.0246 14.42 46.8971 14.5479C46.5691 14.9027 46.5879 15.1436 46.6019 15.2136Z" fill="#008037"/>
<path d="M47.7913 15.5374C47.4446 15.901 47.4539 16.1506 47.468 16.2207C47.5195 16.5448 48.0302 16.4222 48.3582 16.0017C48.6862 15.5813 48.6253 15.2221 48.2973 15.2528C48.1002 15.2942 47.9227 15.3941 47.7913 15.5374Z" fill="#008037"/>
<path d="M49.0977 17.0918C49.4444 16.6932 49.4491 16.2158 49.0977 16.2596C48.9021 16.3063 48.7279 16.4108 48.601 16.5575C48.4964 16.6464 48.4125 16.7545 48.3544 16.875C48.2964 16.9956 48.2655 17.126 48.2637 17.2582C48.3152 17.5736 48.7604 17.4816 49.0977 17.0918Z" fill="#008037"/>
<path d="M49.0088 18.3145C49.0088 18.6079 49.4118 18.5466 49.7491 18.2006C50.0865 17.8546 50.2176 17.2633 49.8569 17.2984C49.6624 17.3471 49.4899 17.453 49.3649 17.6006C49.1521 17.7867 49.0245 18.0424 49.0088 18.3145Z" fill="#008037"/>
<path d="M50.2948 19.2815C50.7306 18.8742 50.8243 18.3486 50.5385 18.3398C50.4448 18.3398 50.2808 18.3837 50.0231 18.6421C49.8133 18.8255 49.679 19.072 49.6436 19.3385C49.6436 19.6232 49.9809 19.5925 50.2948 19.2815Z" fill="#008037"/>
<path d="M51.0674 19.3916C50.983 19.3916 50.8284 19.4354 50.566 19.6851C50.3616 19.8683 50.2211 20.1049 50.1631 20.3639C50.1631 20.6092 50.4114 20.6048 50.7159 20.3639C51.1892 19.9697 51.3485 19.4004 51.0674 19.3916Z" fill="#008037"/>
<path d="M51.5016 20.4072C51.4407 20.4072 51.2908 20.4072 50.9909 20.6875C50.7829 20.8644 50.6347 21.0943 50.5645 21.3489C50.5271 21.5547 50.7051 21.581 50.9675 21.4102C51.4454 21.0948 51.7359 20.4641 51.5016 20.4072Z" fill="#008037"/>
<path d="M51.7696 21.3887C51.7133 21.3887 51.5821 21.3886 51.301 21.6602C51.0884 21.8302 50.9269 22.049 50.8325 22.2953C50.7809 22.4836 50.9121 22.5186 51.137 22.3872C51.6149 22.1026 51.9851 21.4719 51.7696 21.3887Z" fill="#008037"/>
<path d="M38.8367 10.5229C38.8134 10.7726 39.3053 10.6806 39.7129 10.3565C40.0503 10.085 40.1253 9.80028 39.8535 9.7959C39.6459 9.81009 39.4481 9.88348 39.2866 10.0061C38.8883 10.2689 38.8415 10.4616 38.8367 10.5229Z" fill="#008037"/>
<path d="M40.467 10.5225C40.2446 10.5395 40.0334 10.6206 39.8625 10.7546C39.4596 11.0393 39.4268 11.2451 39.4268 11.2977C39.4268 11.5824 40.0031 11.451 40.4107 11.0787C40.7153 10.8203 40.7434 10.5487 40.467 10.5225Z" fill="#008037"/>
<path d="M41.1415 11.3499C40.9276 11.3822 40.7259 11.4651 40.5559 11.5908C40.1389 11.893 40.1201 12.1076 40.1201 12.1689C40.1201 12.4799 40.8089 12.3091 41.2118 11.8886C41.4976 11.5908 41.4649 11.328 41.1415 11.3499Z" fill="#008037"/>
<path d="M40.9177 13.0623C40.9458 13.3864 41.6627 13.2025 42.0563 12.7689C42.3421 12.4535 42.2952 12.1776 41.9579 12.2039C41.7343 12.2338 41.5238 12.3201 41.3488 12.4535C40.9225 12.7733 40.9084 13.001 40.9177 13.0623Z" fill="#008037"/>
<path d="M42.8331 13.0978C42.6052 13.1342 42.3919 13.2264 42.2146 13.365C41.7835 13.6979 41.7788 13.9344 41.7882 13.9957C41.8304 14.333 42.5566 14.1446 42.9455 13.6935C43.2266 13.365 43.1704 13.0759 42.8331 13.0978Z" fill="#008037"/>
<path d="M43.8613 14.6479C44.1565 14.2843 44.0675 13.9778 43.6833 14.0391C43.4762 14.0885 43.2839 14.1814 43.121 14.3106C42.6946 14.6566 42.69 14.9019 42.6993 14.9676C42.7508 15.3399 43.4677 15.1253 43.8613 14.6479Z" fill="#008037"/>
<path d="M44.774 15.6423C45.0692 15.2656 44.9849 14.9503 44.6007 15.0116C44.3917 15.0609 44.1987 15.1571 44.0384 15.2919C43.612 15.6466 43.612 15.9007 43.6214 15.9664C43.673 16.3343 44.3851 16.1328 44.774 15.6423Z" fill="#008037"/>
<path d="M45.6211 16.7201C45.949 16.3391 45.9163 15.9799 45.5555 16.0062C45.327 16.0487 45.1159 16.1504 44.9464 16.2997C44.5247 16.672 44.52 16.926 44.5294 16.996C44.5763 17.3508 45.2135 17.1844 45.6211 16.7201Z" fill="#008037"/>
<path d="M46.4194 17.8281C46.8036 17.4207 46.8082 17.0091 46.4194 17.0397C46.1922 17.0836 45.9837 17.1887 45.8196 17.3419C45.3979 17.7186 45.3885 17.9813 45.3932 18.0515C45.4354 18.4062 46.007 18.2617 46.4194 17.8281Z" fill="#008037"/>
<path d="M47.2012 18.8788C47.5902 18.4802 47.6089 18.0598 47.2434 18.0948C47.019 18.1421 46.8129 18.2467 46.6483 18.397C46.2314 18.7693 46.2127 19.0277 46.2173 19.0978C46.2314 19.4262 46.7936 19.3036 47.2012 18.8788Z" fill="#008037"/>
<path d="M47.8491 19.9567C48.2566 19.5844 48.3504 19.1465 48.0271 19.1377C47.7869 19.161 47.5648 19.2672 47.4039 19.4355C46.9869 19.799 46.9354 20.0487 46.9588 20.1188C46.9588 20.4209 47.4367 20.3334 47.8491 19.9567Z" fill="#008037"/>
<path d="M48.3874 21.003C48.8559 20.6395 48.9872 20.1665 48.6686 20.1533C48.4364 20.1825 48.2217 20.2844 48.0594 20.4424C47.6471 20.8015 47.5909 21.0424 47.5909 21.1081C47.5862 21.3797 47.9891 21.3271 48.3874 21.003Z" fill="#008037"/>
<path d="M49.2355 21.1475C49.1559 21.1475 48.9685 21.1475 48.6124 21.4234C48.3833 21.5808 48.2181 21.8063 48.1438 22.0628C48.1111 22.3125 48.4437 22.2862 48.8232 22.0103C49.2637 21.6818 49.512 21.2 49.2355 21.1475Z" fill="#008037"/>
<path d="M49.6438 22.1025C49.5735 22.1025 49.4001 22.1025 49.044 22.3697C48.6879 22.6369 48.5755 22.9259 48.5521 22.9873C48.5052 23.1931 48.7301 23.2062 49.0581 22.9873C49.5454 22.7201 49.9108 22.1595 49.6438 22.1025Z" fill="#008037"/>
<path d="M49.9182 23.0225C49.8572 23.0225 49.698 23.0225 49.3512 23.2765C49.1227 23.4248 48.9427 23.6295 48.8311 23.8678C48.7749 24.0342 48.9249 24.0692 49.1778 23.9466C49.7261 23.6838 50.1618 23.0794 49.9182 23.0225Z" fill="#008037"/>
<path d="M36.688 11.9543C36.6505 12.1996 37.0441 12.1514 37.4705 11.8623C37.8969 11.5733 38.0983 11.1879 37.836 11.1484C37.7469 11.1484 37.5502 11.1484 37.1847 11.3806C36.7536 11.6828 36.6927 11.8974 36.688 11.9543Z" fill="#008037"/>
<path d="M37.2256 12.8394C37.2256 13.1285 37.7363 13.019 38.1861 12.6467C38.6358 12.2744 38.6546 11.9941 38.3501 11.9854C38.1147 12.0064 37.892 12.0952 37.7128 12.2394C37.2771 12.5503 37.2302 12.7781 37.2256 12.8394Z" fill="#008037"/>
<path d="M39.0147 12.874C38.7682 12.8915 38.5346 12.9838 38.3494 13.1368C37.909 13.4653 37.8809 13.6974 37.8809 13.7631C37.8809 14.0784 38.4993 13.9339 38.9491 13.5135C39.2865 13.185 39.3239 12.8784 39.0147 12.874Z" fill="#008037"/>
<path d="M38.6186 14.7229C38.6186 15.0514 39.2792 14.9025 39.729 14.4646C40.0851 14.1229 40.1085 13.8076 39.7805 13.7988C39.5233 13.8172 39.2796 13.9141 39.0871 14.0747C38.642 14.412 38.6139 14.6572 38.6186 14.7229Z" fill="#008037"/>
<path d="M40.5713 14.7623C40.3255 14.7975 40.0951 14.8961 39.906 15.047C39.4375 15.3974 39.4375 15.6515 39.4375 15.7171C39.4656 16.0719 40.1965 15.8748 40.6416 15.393C40.9743 15.0383 40.9368 14.736 40.5713 14.7623Z" fill="#008037"/>
<path d="M41.4702 15.7784C41.2188 15.8148 40.9835 15.9165 40.7908 16.0718C40.3223 16.4353 40.3223 16.6937 40.3223 16.7638C40.3645 17.1274 41.1141 16.9259 41.5592 16.431C41.8919 16.0411 41.8497 15.7302 41.4702 15.7784Z" fill="#008037"/>
<path d="M42.4046 16.7807C42.151 16.8177 41.9139 16.9209 41.7205 17.0786C41.252 17.4508 41.252 17.718 41.252 17.7881C41.2941 18.1692 42.0532 17.9589 42.4983 17.4465C42.8263 17.0917 42.7841 16.7545 42.4046 16.7807Z" fill="#008037"/>
<path d="M43.421 18.5022C43.7442 18.1299 43.7067 17.8014 43.3366 17.8321C43.0853 17.8702 42.8511 17.9751 42.6619 18.1343C42.1934 18.5109 42.1934 18.7693 42.1934 18.8394C42.2262 19.2161 42.9524 19.0102 43.421 18.5022Z" fill="#008037"/>
<path d="M43.0886 19.8693C43.1214 20.2285 43.8477 20.0314 44.2834 19.5408C44.6067 19.1729 44.5739 18.8532 44.2131 18.8839C43.9684 18.922 43.7406 19.0255 43.5572 19.1817C43.0933 19.5452 43.0792 19.7992 43.0886 19.8693Z" fill="#008037"/>
<path d="M45.0311 20.5957C45.4107 20.219 45.4154 19.8687 45.0311 19.8993C44.7908 19.9368 44.5667 20.037 44.3845 20.1884C43.916 20.5432 43.916 20.7928 43.916 20.8585C43.9488 21.1957 44.5861 21.0336 45.0311 20.5957Z" fill="#008037"/>
<path d="M45.7633 21.5768C46.1147 21.2396 46.1569 20.9111 45.8524 20.9023C45.6006 20.9238 45.3633 21.0223 45.1776 21.1826C44.7091 21.5286 44.7091 21.7651 44.7091 21.8308C44.6997 22.1505 45.2948 22.0016 45.7633 21.5768Z" fill="#008037"/>
<path d="M46.3262 22.5669C46.7245 22.2297 46.8182 21.875 46.509 21.8662C46.2672 21.8918 46.0397 21.9867 45.8577 22.1378C45.422 22.4706 45.3892 22.6984 45.3892 22.764C45.3564 23.0487 45.8811 22.9436 46.3262 22.5669Z" fill="#008037"/>
<path d="M47.1039 22.7861C47.0149 22.7861 46.8181 22.7861 46.4386 23.0445C46.0591 23.3029 45.9466 23.5788 45.9373 23.6401C45.9045 23.8986 46.3449 23.8285 46.776 23.5C47.207 23.1716 47.3522 22.843 47.1039 22.7861Z" fill="#008037"/>
<path d="M47.5343 23.6875C47.4688 23.6875 47.2813 23.6875 46.8971 23.9328C46.5129 24.178 46.3958 24.4408 46.3864 24.4978C46.3349 24.7167 46.6488 24.6949 47.0377 24.4496C47.5156 24.1561 47.7874 23.7313 47.5343 23.6875Z" fill="#008037"/>
<path d="M47.8626 24.5382C47.8204 24.5382 47.6611 24.4856 47.2301 24.7616C46.799 25.0375 46.7194 25.239 46.7006 25.2915C46.6444 25.4579 46.8271 25.4798 47.1223 25.344C47.6377 25.1163 48.064 24.6258 47.8626 24.5382Z" fill="#008037"/>
<path d="M34.5185 13.5317C34.481 13.7769 34.8137 13.7551 35.212 13.4791C35.6805 13.1462 35.9335 12.6995 35.6805 12.6514C35.6149 12.6514 35.4134 12.6514 35.0339 12.9098C34.6543 13.1682 34.5185 13.466 34.5185 13.5317Z" fill="#008037"/>
<path d="M35.0098 14.4642C35.0098 14.7576 35.4408 14.6788 35.8812 14.3109C36.3217 13.943 36.4388 13.5576 36.1202 13.5488C35.8823 13.5691 35.6591 13.665 35.4876 13.8204C35.0613 14.1751 35.0144 14.416 35.0098 14.4642Z" fill="#008037"/>
<path d="M36.7486 14.5215C36.5014 14.5396 36.269 14.6388 36.0926 14.8018C35.6662 15.1478 35.624 15.4018 35.624 15.4675C35.624 15.7873 36.1488 15.6734 36.5986 15.2573C37.0484 14.8412 37.0672 14.5302 36.7486 14.5215Z" fill="#008037"/>
<path d="M37.4218 15.5063C37.1895 15.547 36.9738 15.647 36.7986 15.7953C36.3628 16.1545 36.3301 16.4129 36.3301 16.4873C36.3301 16.829 36.9532 16.6713 37.3937 16.2114C37.7966 15.8304 37.7966 15.48 37.4218 15.5063Z" fill="#008037"/>
<path d="M37.1462 17.5302C37.179 17.885 37.7928 17.7273 38.2427 17.2455C38.6081 16.8557 38.5987 16.4965 38.2427 16.5272C38.0038 16.5637 37.7819 16.6659 37.6054 16.8207C37.1509 17.1886 37.1369 17.4557 37.1462 17.5302Z" fill="#008037"/>
<path d="M39.0909 17.5696C38.8464 17.6073 38.6196 17.7126 38.4396 17.8718C37.9992 18.2485 37.9711 18.5112 38.0039 18.5813C38.0507 18.9536 38.7489 18.7522 39.1753 18.2441C39.4985 17.863 39.4563 17.5302 39.0909 17.5696Z" fill="#008037"/>
<path d="M38.9046 19.6144C38.9561 19.9736 39.6636 19.7765 40.09 19.2859C40.4086 18.918 40.3664 18.5983 39.9963 18.6246C39.7492 18.6599 39.5191 18.7637 39.3356 18.9224C38.8952 19.2815 38.8952 19.5443 38.9046 19.6144Z" fill="#008037"/>
<path d="M40.8628 19.6626C40.6384 19.7109 40.4296 19.8085 40.2537 19.9473C39.7852 20.3021 39.7852 20.5518 39.8179 20.6218C39.8741 20.9897 40.652 20.7532 41.0596 20.2452C41.3548 19.886 41.2564 19.6013 40.8628 19.6626Z" fill="#008037"/>
<path d="M41.9691 21.2307C42.2643 20.8846 42.1706 20.6087 41.7817 20.6657C41.559 20.7135 41.3508 20.8078 41.1726 20.9416C40.7041 21.2876 40.7041 21.5285 40.7275 21.5942C40.779 21.9533 41.5475 21.7256 41.9691 21.2307Z" fill="#008037"/>
<path d="M42.8147 22.186C43.0912 21.8663 43.0396 21.6122 42.7116 21.6341C42.4723 21.668 42.2472 21.7618 42.0604 21.9057C41.6153 22.2429 41.5918 22.475 41.5918 22.5363C41.648 22.8824 42.4024 22.6634 42.8147 22.186Z" fill="#008037"/>
<path d="M43.5854 23.1016C43.8572 22.795 43.8244 22.5498 43.5105 22.5717C43.2799 22.6055 43.0632 22.6962 42.8826 22.8344C42.4469 23.1541 42.4141 23.3775 42.4141 23.4344C42.4515 23.763 43.1778 23.5527 43.5854 23.1016Z" fill="#008037"/>
<path d="M44.2013 24.0206C44.5012 23.7315 44.5293 23.4775 44.2575 23.4688C44.0177 23.4859 43.7899 23.5732 43.6062 23.7184C43.1845 24.025 43.1377 24.2352 43.1377 24.2921C43.1564 24.5856 43.7843 24.4236 44.2013 24.0206Z" fill="#008037"/>
<path d="M44.8546 24.3232C44.6273 24.3437 44.4118 24.4276 44.2362 24.5641C43.8191 24.8532 43.7676 25.0503 43.7676 25.1028C43.7676 25.37 44.2736 25.2517 44.7047 24.8926C45.0514 24.6079 45.1217 24.3319 44.8546 24.3232Z" fill="#008037"/>
<path d="M45.3656 25.1377C45.137 25.1404 44.9165 25.2179 44.7425 25.3567C44.3396 25.6282 44.274 25.7947 44.274 25.8648C44.2364 26.0837 44.6301 26.0224 45.033 25.7465C45.4359 25.4706 45.5952 25.1728 45.3656 25.1377Z" fill="#008037"/>
<path d="M45.7346 25.904C45.7065 25.904 45.5378 25.8515 45.1161 26.1011C44.6945 26.3507 44.6476 26.5391 44.6476 26.5741C44.5961 26.7362 44.835 26.7318 45.1677 26.5741C45.5987 26.3377 45.9174 25.9697 45.7346 25.904Z" fill="#008037"/>
<path d="M32.4834 15.2224C32.4834 15.4677 32.7223 15.4633 33.0597 15.2224C33.5517 14.8502 33.8 14.3027 33.4767 14.2939C33.397 14.2939 33.219 14.3246 32.9192 14.5742C32.6971 14.7359 32.5428 14.9653 32.4834 15.2224Z" fill="#008037"/>
<path d="M32.9805 16.2164C32.9805 16.5098 33.3366 16.4529 33.7161 16.1113C34.0956 15.7697 34.2877 15.2573 33.9738 15.2354C33.8847 15.2354 33.6974 15.266 33.3928 15.5244C33.1656 15.6972 33.018 15.9449 32.9805 16.2164Z" fill="#008037"/>
<path d="M34.518 16.2734C34.3054 16.3148 34.1121 16.4174 33.9651 16.5668C33.8535 16.6534 33.7617 16.7601 33.6949 16.8804C33.6281 17.0007 33.5877 17.1324 33.5762 17.2675C33.5762 17.5829 34.0119 17.4997 34.4055 17.1011C34.7991 16.7025 34.8975 16.2383 34.518 16.2734Z" fill="#008037"/>
<path d="M35.2428 17.3108C34.9958 17.3718 34.7743 17.501 34.6072 17.6814C34.44 17.8619 34.3349 18.0854 34.3057 18.3225C34.3431 18.6554 34.8305 18.5372 35.2146 18.0992C35.5988 17.6612 35.5988 17.2758 35.2428 17.3108Z" fill="#008037"/>
<path d="M35.1045 19.3647C35.156 19.7063 35.7089 19.5486 36.0838 19.0887C36.4071 18.6945 36.379 18.3354 36.0323 18.3661C35.8104 18.4035 35.6078 18.5082 35.4559 18.6639C35.0811 19.0318 35.0905 19.2814 35.1045 19.3647Z" fill="#008037"/>
<path d="M36.828 19.409C36.6277 19.4607 36.4451 19.5603 36.2986 19.6981C35.9284 20.0528 35.9425 20.3069 35.9566 20.3769C36.0268 20.7273 36.6406 20.5346 37.0014 20.0528C37.2919 19.6631 37.2076 19.3433 36.828 19.409Z" fill="#008037"/>
<path d="M36.8622 21.358C36.9418 21.7128 37.6119 21.4894 37.9492 20.9901C38.1928 20.631 38.0897 20.3594 37.7337 20.4208C37.532 20.4678 37.3475 20.5646 37.1995 20.7011C36.8153 21.0339 36.8622 21.2923 36.8622 21.358Z" fill="#008037"/>
<path d="M37.7593 22.308C37.8436 22.654 38.5043 22.4393 38.851 21.9532C39.0946 21.6072 38.9915 21.3444 38.6308 21.4013C38.4309 21.448 38.2471 21.5415 38.0966 21.6729C37.7218 22.0058 37.7452 22.2422 37.7593 22.308Z" fill="#008037"/>
<path d="M38.6684 23.224C38.748 23.57 39.4696 23.3204 39.7835 22.8386C39.9991 22.5014 39.8585 22.2824 39.4789 22.3699C39.3059 22.4197 39.1462 22.5033 39.0104 22.6152C38.6309 22.9262 38.6544 23.1539 38.6684 23.224Z" fill="#008037"/>
<path d="M40.6516 23.7146C40.8718 23.3948 40.7359 23.1846 40.3657 23.2766C40.1941 23.325 40.0347 23.4055 39.8972 23.5131C39.5271 23.8197 39.5411 24.0343 39.5552 24.0956C39.6208 24.411 40.333 24.1701 40.6516 23.7146Z" fill="#008037"/>
<path d="M41.4611 24.5592C41.672 24.2789 41.5783 24.0774 41.255 24.1212C41.0635 24.1604 40.8841 24.2398 40.7302 24.3533C40.3647 24.6424 40.3694 24.8483 40.3835 24.9052C40.4444 25.2205 41.1284 24.9971 41.4611 24.5592Z" fill="#008037"/>
<path d="M42.1922 25.3523C42.4078 25.0851 42.3328 24.9143 42.0235 24.945C41.8378 24.9834 41.6635 25.0596 41.5128 25.1683C41.1427 25.4355 41.1427 25.6282 41.1474 25.6807C41.1896 25.9698 41.8643 25.7596 42.1922 25.3523Z" fill="#008037"/>
<path d="M42.7689 26.1362C43.0126 25.8866 42.9938 25.6982 42.7268 25.6982C42.534 25.7251 42.3518 25.7975 42.1973 25.9085C41.8412 26.1625 41.8271 26.3464 41.8271 26.3902C41.8459 26.6574 42.4175 26.4997 42.7689 26.1362Z" fill="#008037"/>
<path d="M43.3043 26.4297C43.1074 26.4429 42.9195 26.5116 42.7654 26.6268C42.4234 26.8589 42.3906 27.021 42.3906 27.0647C42.3906 27.2837 42.8591 27.1611 43.2199 26.8546C43.4823 26.6312 43.5198 26.4341 43.3043 26.4297Z" fill="#008037"/>
<path d="M43.7307 27.0908C43.5383 27.0967 43.3529 27.1596 43.2012 27.2704C42.8685 27.4849 42.8217 27.6295 42.817 27.6689C42.7889 27.8485 43.1356 27.7828 43.487 27.5463C43.8385 27.3098 43.9134 27.1214 43.7307 27.0908Z" fill="#008037"/>
<path d="M31.1389 16.3123C30.9551 16.5062 30.8433 16.7505 30.8203 17.0087C30.8203 17.2496 31.0078 17.2628 31.2608 17.0394C31.6496 16.689 31.9167 16.032 31.6075 16.0189C31.5372 16.0145 31.3826 16.0495 31.1389 16.3123Z" fill="#008037"/>
<path d="M31.6176 17.3507C31.433 17.5488 31.33 17.8018 31.3271 18.0646C31.3505 18.3405 31.6176 18.3099 31.8987 18.0033C32.297 17.5653 32.3954 17.0134 32.0674 17.0485C31.8838 17.096 31.7243 17.2031 31.6176 17.3507Z" fill="#008037"/>
<path d="M32.6719 18.1043C32.4816 18.1484 32.3151 18.2558 32.2034 18.4065C32.0215 18.5994 31.926 18.8503 31.9363 19.1073C31.9832 19.3963 32.2971 19.3438 32.5876 18.9978C32.9624 18.5729 33.0046 18.0693 32.6719 18.1043Z" fill="#008037"/>
<path d="M33.4353 19.9123C33.7399 19.4743 33.6836 19.0802 33.3416 19.1546C33.1716 19.2088 33.0231 19.3095 32.9152 19.4437C32.826 19.5353 32.7585 19.6436 32.7173 19.7613C32.6761 19.8791 32.6621 20.0037 32.6762 20.1269C32.7465 20.4466 33.1448 20.3328 33.4353 19.9123Z" fill="#008037"/>
<path d="M34.2974 20.8583C34.5504 20.4553 34.466 20.1049 34.1334 20.175C33.9625 20.2253 33.8121 20.3231 33.7023 20.4553C33.6139 20.5426 33.5478 20.6473 33.5089 20.7619C33.4699 20.8764 33.4591 20.9977 33.4774 21.1166C33.5805 21.4407 34.0209 21.2962 34.2974 20.8583Z" fill="#008037"/>
<path d="M35.206 21.7695C35.4309 21.3753 35.2903 21.0731 34.9389 21.1738C34.7877 21.2272 34.6549 21.318 34.5547 21.4366C34.467 21.5195 34.4021 21.6209 34.3653 21.7322C34.3286 21.8435 34.3213 21.9615 34.3439 22.0761C34.4516 22.4089 34.9436 22.2338 35.206 21.7695Z" fill="#008037"/>
<path d="M36.1388 22.6546C36.3309 22.2736 36.1388 22.0108 35.7827 22.1466C35.6546 22.1997 35.541 22.279 35.45 22.3787C35.3628 22.457 35.2985 22.5548 35.2632 22.6629C35.2279 22.771 35.2229 22.8858 35.2486 22.9962C35.3704 23.3291 35.9233 23.1232 36.1388 22.6546Z" fill="#008037"/>
<path d="M37.0566 23.548C37.2487 23.1845 37.0566 22.9348 36.7006 23.0618C36.5725 23.1132 36.4576 23.1894 36.3632 23.2852C36.278 23.3591 36.2154 23.4527 36.1816 23.5566C36.1479 23.6604 36.1443 23.7708 36.1711 23.8765C36.2929 24.1918 36.8224 23.9947 37.0566 23.548Z" fill="#008037"/>
<path d="M37.9865 24.3538C38.1411 24.0254 37.9536 23.8239 37.6163 23.9159C37.4888 23.9618 37.3748 24.0353 37.2836 24.1305C37.0119 24.4239 37.0681 24.6297 37.0916 24.6867C37.2181 25.0239 37.799 24.8005 37.9865 24.3538Z" fill="#008037"/>
<path d="M38.8621 25.16C39.0167 24.8535 38.8387 24.6607 38.506 24.7702C38.3827 24.815 38.2709 24.8836 38.178 24.9717C37.9109 25.2476 37.9624 25.4447 37.9859 25.4973C38.1077 25.7907 38.6559 25.5805 38.8621 25.16Z" fill="#008037"/>
<path d="M39.7048 25.8779C39.8313 25.5976 39.6299 25.4399 39.3065 25.567C39.206 25.6105 39.114 25.6697 39.0348 25.7421C38.7724 25.9962 38.8146 26.1802 38.838 26.2283C38.9505 26.5174 39.5174 26.2896 39.7048 25.8779Z" fill="#008037"/>
<path d="M40.4588 26.5834C40.5853 26.3425 40.4307 26.1936 40.1402 26.2812C40.0249 26.321 39.9185 26.3804 39.8263 26.4564C39.5686 26.6929 39.6061 26.8637 39.6248 26.8943C39.7185 27.1659 40.2667 26.9557 40.4588 26.5834Z" fill="#008037"/>
<path d="M41.12 27.2316C41.2559 27.0082 41.12 26.8768 40.8436 26.9556C40.7337 26.9917 40.632 27.0467 40.5437 27.1177C40.2907 27.3323 40.3141 27.4856 40.3282 27.5294C40.4078 27.7834 40.9326 27.5469 41.12 27.2316Z" fill="#008037"/>
<path d="M41.6782 27.818C41.8141 27.6297 41.7251 27.5114 41.4908 27.5596C41.3702 27.5885 41.2581 27.6423 41.1628 27.7173C40.9145 27.91 40.9239 28.0457 40.9333 28.0852C40.9895 28.3086 41.4814 28.0983 41.6782 27.818Z" fill="#008037"/>
<path d="M42.0154 28.1075C41.8932 28.1325 41.7781 28.1818 41.6781 28.252C41.4485 28.4141 41.4344 28.5324 41.4392 28.5718C41.4392 28.7514 41.9077 28.6024 42.1138 28.344C42.2356 28.1864 42.1888 28.0812 42.0154 28.1075Z" fill="#008037"/>
<path d="M29.6787 18.8436C29.7021 19.0276 29.8099 19.1239 29.9879 18.9093C30.2784 18.5589 30.4565 17.7881 30.1519 17.8319C30.0535 17.8319 29.9504 17.9501 29.8426 18.1385C29.7187 18.3546 29.6619 18.5989 29.6787 18.8436Z" fill="#008037"/>
<path d="M30.6095 19.8647C30.8766 19.4793 30.9468 18.853 30.6563 18.8924C30.5486 18.8924 30.4408 19.0063 30.333 19.1902C30.2128 19.4007 30.1668 19.6415 30.2019 19.8779C30.2581 20.1275 30.4361 20.1231 30.6095 19.8647Z" fill="#008037"/>
<path d="M31.3176 20.8189C31.5894 20.3809 31.5472 19.8422 31.2474 19.943C31.0928 19.9868 30.985 20.1663 30.9522 20.2233C30.8315 20.4274 30.7932 20.6652 30.8444 20.8934C30.9194 21.1386 31.1349 21.1124 31.3176 20.8189Z" fill="#008037"/>
<path d="M32.1364 21.6904C32.3566 21.2524 32.2394 20.8144 31.9349 20.9327C31.818 20.9912 31.7244 21.0834 31.6678 21.1954C31.5514 21.3933 31.5212 21.6255 31.5835 21.8436C31.7053 22.124 31.9583 22.0495 32.1364 21.6904Z" fill="#008037"/>
<path d="M33.0044 22.5751C33.1871 22.1371 33.0419 21.7867 32.742 21.8962C32.6241 21.9508 32.5286 22.04 32.4702 22.1502C32.4124 22.2435 32.3766 22.3473 32.3652 22.4546C32.3539 22.5618 32.3674 22.6702 32.4047 22.7722C32.5312 23.0525 32.8358 22.9561 33.0044 22.5751Z" fill="#008037"/>
<path d="M33.9182 23.4298C34.0681 23.0269 33.8713 22.6984 33.5715 22.8386C33.4721 22.8925 33.3909 22.9714 33.3372 23.0663C33.2803 23.1553 33.2464 23.2556 33.2382 23.3589C33.2301 23.4623 33.2479 23.5661 33.2903 23.662C33.4309 23.951 33.7682 23.824 33.9182 23.4298Z" fill="#008037"/>
<path d="M34.8556 24.2399C34.9775 23.8501 34.7479 23.5742 34.4433 23.745C34.3606 23.7937 34.2928 23.8616 34.2465 23.942C34.1929 24.0268 34.1619 24.1225 34.1562 24.2208C34.1505 24.3191 34.1703 24.4173 34.2138 24.507C34.3684 24.7917 34.7338 24.6428 34.8556 24.2399Z" fill="#008037"/>
<path d="M35.793 25.0546C35.9195 24.6561 35.6524 24.4371 35.376 24.5859C35.2954 24.632 35.2291 24.6969 35.1839 24.7743C35.1302 24.8527 35.0994 24.9428 35.0944 25.0358C35.0895 25.1287 35.1106 25.2213 35.1558 25.3043C35.3198 25.5758 35.6711 25.4356 35.793 25.0546Z" fill="#008037"/>
<path d="M36.7335 25.7776C36.8225 25.4185 36.5648 25.2477 36.3071 25.3791C36.2311 25.4231 36.1669 25.4831 36.1197 25.5543C36.0714 25.6297 36.0459 25.716 36.0459 25.8039C36.0459 25.8918 36.0714 25.9781 36.1197 26.0535C36.2696 26.3163 36.6351 26.1542 36.7335 25.7776Z" fill="#008037"/>
<path d="M37.6287 26.4907C37.7224 26.1403 37.4459 25.9826 37.1883 26.1403C37.1287 26.1789 37.0778 26.228 37.0384 26.2849C36.9972 26.3514 36.9756 26.4269 36.9756 26.5038C36.9756 26.5807 36.9972 26.6562 37.0384 26.7228C37.1883 26.99 37.535 26.8455 37.6287 26.4907Z" fill="#008037"/>
<path d="M38.065 26.8284C38.0079 26.8629 37.9585 26.9076 37.9197 26.9598C37.8715 27.0239 37.8457 27.1004 37.8457 27.1788C37.8457 27.2572 37.8715 27.3336 37.9197 27.3978C38.0977 27.643 38.4398 27.4416 38.5054 27.1306C38.571 26.8197 38.2946 26.6882 38.065 26.8284Z" fill="#008037"/>
<path d="M38.735 27.9496C38.899 28.173 39.2036 27.9934 39.2832 27.7131C39.3629 27.4328 39.1146 27.3277 38.8944 27.4547C38.8411 27.4852 38.7949 27.5255 38.7585 27.573C38.7149 27.6264 38.6893 27.6908 38.6852 27.7579C38.681 27.8251 38.6984 27.8918 38.735 27.9496Z" fill="#008037"/>
<path d="M39.9707 28.2213C40.0222 27.9847 39.7879 27.9059 39.5911 28.0329C39.5549 28.0602 39.5219 28.091 39.4927 28.1249C39.4505 28.1703 39.425 28.2271 39.4199 28.287C39.4148 28.3469 39.4305 28.4068 39.4646 28.4578C39.6146 28.6592 39.9145 28.4797 39.9707 28.2213Z" fill="#008037"/>
<path d="M40.113 28.917C40.2395 29.0879 40.5253 28.917 40.5815 28.6893C40.6378 28.4615 40.4223 28.4441 40.2536 28.5535C40.2176 28.5727 40.1859 28.5979 40.1599 28.628C40.1185 28.6643 40.0915 28.7125 40.0829 28.765C40.0744 28.8174 40.085 28.8709 40.113 28.917Z" fill="#008037"/>
<path d="M40.7786 28.9529C40.7489 28.973 40.7207 28.9949 40.6942 29.0185C40.5911 29.1412 40.6286 29.2244 40.6473 29.255C40.7551 29.4127 41.0128 29.2244 41.055 29.0492C41.0972 28.874 40.9238 28.8697 40.7786 28.9529Z" fill="#008037"/>
<path d="M29.3126 19.6678C29.2704 19.6678 29.2049 19.7379 29.1534 19.9613C29.1038 20.1822 29.1038 20.4104 29.1534 20.6314C29.1534 20.6971 29.233 20.8942 29.3173 20.7759C29.5047 20.5526 29.5328 19.6197 29.3126 19.6678Z" fill="#008037"/>
<path d="M29.8329 20.679C29.7345 20.7227 29.6971 20.8979 29.683 20.9549C29.6424 21.1727 29.6585 21.3966 29.7299 21.6075C29.8001 21.8002 29.8939 21.8352 29.9641 21.6995C30.1094 21.3841 30.0531 20.5957 29.8329 20.679Z" fill="#008037"/>
<path d="M30.45 21.6514C30.3422 21.6908 30.3047 21.8616 30.2906 21.9185C30.2508 22.1297 30.2768 22.3471 30.3656 22.5448C30.4406 22.7069 30.5577 22.7901 30.6467 22.6061C30.8013 22.2733 30.6983 21.555 30.45 21.6514Z" fill="#008037"/>
<path d="M31.4595 23.4344C31.5813 23.0577 31.4173 22.4621 31.169 22.5979C31.0898 22.66 31.038 22.7474 31.0238 22.8431C30.9876 23.0493 31.022 23.2608 31.1222 23.4476C31.2393 23.6621 31.3846 23.6621 31.4595 23.4344Z" fill="#008037"/>
<path d="M32.33 24.2527C32.4331 23.8498 32.2222 23.3768 31.988 23.495C31.9485 23.5227 31.9152 23.5575 31.8903 23.5974C31.8653 23.6373 31.8491 23.6814 31.8428 23.7272C31.809 23.9248 31.8487 24.1273 31.9552 24.3009C32.1005 24.5374 32.2644 24.5024 32.33 24.2527Z" fill="#008037"/>
<path d="M32.8599 25.1116C33.0005 25.3087 33.1926 25.3218 33.2535 25.0283C33.3332 24.6254 33.0801 24.2093 32.8506 24.3626C32.7845 24.4169 32.7413 24.4915 32.7287 24.5729C32.6964 24.7615 32.7434 24.9545 32.8599 25.1116Z" fill="#008037"/>
<path d="M34.2086 25.7556C34.2555 25.3614 33.9744 25.0066 33.7401 25.1906C33.6889 25.2376 33.656 25.2992 33.6464 25.3658C33.6226 25.5456 33.6728 25.7273 33.787 25.8738C33.965 26.0665 34.1712 26.0665 34.2086 25.7556Z" fill="#008037"/>
<path d="M35.1728 26.4694C35.2103 26.1059 34.9244 25.7774 34.7042 25.9439C34.6564 25.9891 34.6252 26.0474 34.6153 26.1103C34.6042 26.1938 34.6119 26.2787 34.6377 26.3593C34.6634 26.44 34.7069 26.5147 34.7652 26.579C34.9339 26.7585 35.14 26.7585 35.1728 26.4694Z" fill="#008037"/>
<path d="M36.1335 27.0958C36.1335 26.7192 35.8242 26.4914 35.665 26.6578C35.6285 26.6957 35.6056 26.7431 35.5994 26.7936C35.5897 26.873 35.5991 26.9535 35.6266 27.0292C35.6542 27.105 35.6992 27.174 35.7587 27.2316C35.9226 27.4024 36.1241 27.3805 36.1335 27.0958Z" fill="#008037"/>
<path d="M36.7068 27.8177C36.8755 27.971 37.0676 27.9535 37.0676 27.6951C37.0676 27.3578 36.763 27.1476 36.5991 27.3053C36.5673 27.3403 36.5462 27.3827 36.5381 27.4279C36.5333 27.5006 36.5459 27.5733 36.5751 27.6407C36.6043 27.7082 36.6493 27.7687 36.7068 27.8177Z" fill="#008037"/>
<path d="M37.9585 28.2346C37.9585 27.9236 37.6633 27.7441 37.4899 27.8842C37.4588 27.9139 37.439 27.9524 37.4337 27.9937C37.4322 28.0595 37.4466 28.1248 37.4758 28.1847C37.505 28.2446 37.5483 28.2976 37.6024 28.3397C37.7992 28.4798 37.9679 28.4798 37.9585 28.2346Z" fill="#008037"/>
<path d="M38.7805 28.676C38.7383 28.4044 38.4665 28.273 38.3541 28.4132C38.3359 28.4363 38.3246 28.4635 38.3213 28.492C38.3238 28.5503 38.3402 28.6073 38.3694 28.6589C38.3987 28.7104 38.4398 28.7552 38.49 28.7899C38.654 28.9168 38.8086 28.9168 38.7805 28.676Z" fill="#008037"/>
<path d="M39.5231 29.0792C39.4716 28.8296 39.2279 28.7464 39.1436 28.8559C39.128 28.8763 39.1198 28.9009 39.1201 28.9259C39.1253 28.9759 39.1428 29.0241 39.1712 29.0666C39.1997 29.1092 39.2383 29.145 39.2841 29.1712C39.434 29.2719 39.5605 29.2632 39.5231 29.0792Z" fill="#008037"/>
<path d="M40.1677 29.4213C40.1161 29.2067 39.9053 29.1323 39.8397 29.2242C39.8321 29.2425 39.8321 29.2628 39.8397 29.2812C39.8495 29.3234 39.8694 29.363 39.8977 29.3971C39.9261 29.4312 39.9623 29.459 40.0037 29.4783C40.0084 29.4914 40.2145 29.6052 40.1677 29.4213Z" fill="#008037"/>
<path d="M40.4261 29.5175C40.4218 29.5318 40.4218 29.5471 40.4261 29.5614C40.4404 29.5933 40.4614 29.6222 40.488 29.6463C40.5146 29.6704 40.5462 29.6892 40.5808 29.7015C40.6885 29.7541 40.7354 29.7453 40.712 29.7015C40.6417 29.4956 40.473 29.4519 40.4261 29.5175Z" fill="#008037"/>
<path d="M29.0981 21.1035C29.0981 21.1035 29.0466 21.1254 29.0981 21.3794C29.147 21.5963 29.2159 21.8088 29.3043 22.0145C29.3746 22.1634 29.3933 22.1766 29.4027 22.181C29.3777 21.8066 29.2742 21.4406 29.0981 21.1035Z" fill="#008037"/>
<path d="M29.6731 22.3479C29.645 22.3479 29.6215 22.4136 29.6731 22.6151C29.7225 22.826 29.7997 23.0305 29.9026 23.2239C29.9308 23.272 30.0244 23.4341 30.0432 23.364C30.0713 23.2239 29.7996 22.3085 29.6731 22.3479Z" fill="#008037"/>
<path d="M30.2994 23.2678C30.262 23.2941 30.2572 23.3773 30.2994 23.513C30.3488 23.7189 30.4343 23.9158 30.5525 24.0955C30.5899 24.1481 30.7071 24.3189 30.7305 24.2182C30.7679 24.0123 30.4494 23.1626 30.2994 23.2678Z" fill="#008037"/>
<path d="M31.0542 24.1349C31.012 24.1349 31.0026 24.2356 31.0307 24.3671C31.0855 24.5646 31.1775 24.7515 31.3025 24.9189C31.3962 25.0328 31.4993 25.1204 31.5133 25.0153C31.5508 24.7744 31.2088 24.0429 31.0542 24.1349Z" fill="#008037"/>
<path d="M31.8791 24.9754C31.8276 25.0236 31.851 25.1375 31.8791 25.1857C31.9363 25.3759 32.037 25.5522 32.1743 25.7024C32.2727 25.8163 32.3992 25.9039 32.4086 25.7725C32.4039 25.4966 32.029 24.8265 31.8791 24.9754Z" fill="#008037"/>
<path d="M32.7839 25.7337C32.7277 25.7775 32.7512 25.887 32.7839 25.9308C32.8449 26.111 32.949 26.2758 33.0885 26.4126C33.2009 26.5177 33.3322 26.5965 33.3415 26.4783C33.3462 26.2286 32.9433 25.6023 32.7839 25.7337Z" fill="#008037"/>
<path d="M33.7208 26.4605C33.6833 26.5087 33.7208 26.5963 33.7208 26.6314C33.789 26.7996 33.8999 26.9499 34.044 27.0693C34.1799 27.1832 34.3111 27.2401 34.3064 27.1087C34.2877 26.8503 33.8566 26.2897 33.7208 26.4605Z" fill="#008037"/>
<path d="M34.7061 27.1222C34.6686 27.166 34.7061 27.2449 34.7061 27.2799C34.7811 27.4358 34.8953 27.5725 35.0388 27.6784C35.17 27.7748 35.3105 27.8318 35.3011 27.7135C35.2777 27.477 34.8326 26.9821 34.7061 27.1222Z" fill="#008037"/>
<path d="M35.6993 27.7178C35.6618 27.7573 35.6993 27.8317 35.6993 27.8623C35.7824 28.0037 35.8995 28.1252 36.0413 28.2171C36.1772 28.3047 36.3131 28.3485 36.2943 28.2477C36.2662 28.0419 35.8164 27.6039 35.6993 27.7178Z" fill="#008037"/>
<path d="M36.6726 28.2645C36.6672 28.284 36.6665 28.3042 36.6706 28.3239C36.6747 28.3436 36.6833 28.3622 36.6959 28.3784C36.7824 28.506 36.9016 28.6114 37.0427 28.685C37.1364 28.7419 37.3098 28.8164 37.2816 28.7156C37.2254 28.5142 36.7475 28.12 36.6726 28.2645Z" fill="#008037"/>
<path d="M37.879 28.7821C37.7571 28.7032 37.6494 28.6813 37.6306 28.7295C37.6118 28.7777 37.6306 28.7996 37.6588 28.8258C37.7547 28.9364 37.8765 29.0248 38.0148 29.0843C38.1038 29.1324 38.2538 29.185 38.2351 29.1193C38.1414 28.986 38.0204 28.8713 37.879 28.7821Z" fill="#008037"/>
<path d="M38.7343 29.1627C38.5937 29.0882 38.5235 29.0882 38.5141 29.1189C38.5048 29.1495 38.5141 29.1802 38.5516 29.2021C38.6565 29.2919 38.779 29.3617 38.9123 29.4079C38.9874 29.4386 39.1232 29.4824 39.1091 29.443C38.9992 29.3333 38.873 29.2389 38.7343 29.1627Z" fill="#008037"/>
<path d="M39.5596 29.469C39.4472 29.4165 39.3909 29.4121 39.3722 29.4252C39.3535 29.4383 39.405 29.4865 39.4237 29.4997C39.5332 29.5677 39.6533 29.6195 39.7798 29.6529C39.8337 29.6729 39.8906 29.6847 39.9485 29.688C39.8249 29.6061 39.6948 29.5329 39.5596 29.469Z" fill="#008037"/>
<path d="M40.1406 29.6704C40.1406 29.6704 40.1921 29.7054 40.2109 29.7185C40.3254 29.763 40.4448 29.7953 40.567 29.8149H40.7075L40.239 29.6572C40.1406 29.6616 40.1406 29.6572 40.1406 29.6704Z" fill="#008037"/>
</svg>
