<svg width="1280" height="1280" viewBox="0 0 1280 1280" fill="none" xmlns="http://www.w3.org/2000/svg">
<path d="M572.861 1021.28H559.836C559.988 1024.43 560.826 1026.92 562.35 1028.74C563.518 1030.15 564.923 1030.85 566.564 1030.85C567.58 1030.85 568.503 1030.57 569.332 1030.01C570.161 1029.44 571.05 1028.41 571.998 1026.94L572.861 1027.5C571.575 1030.12 570.153 1031.99 568.596 1033.09C567.038 1034.17 565.236 1034.71 563.188 1034.71C559.667 1034.71 557.001 1033.36 555.189 1030.65C553.734 1028.46 553.006 1025.76 553.006 1022.52C553.006 1018.56 554.072 1015.41 556.205 1013.08C558.355 1010.73 560.868 1009.55 563.746 1009.55C566.15 1009.55 568.232 1010.54 569.992 1012.52C571.77 1014.48 572.726 1017.4 572.861 1021.28ZM566.615 1019.58C566.615 1016.85 566.463 1014.98 566.158 1013.97C565.87 1012.95 565.413 1012.18 564.787 1011.66C564.432 1011.35 563.958 1011.2 563.365 1011.2C562.485 1011.2 561.766 1011.63 561.207 1012.49C560.208 1014 559.709 1016.07 559.709 1018.69V1019.58H566.615ZM590.863 1009.6L591.244 1017.7H590.381C589.348 1015.3 588.273 1013.65 587.156 1012.77C586.056 1011.89 584.956 1011.45 583.855 1011.45C583.161 1011.45 582.569 1011.69 582.078 1012.16C581.587 1012.62 581.342 1013.15 581.342 1013.76C581.342 1014.22 581.511 1014.66 581.85 1015.08C582.391 1015.78 583.906 1016.97 586.395 1018.66C588.883 1020.34 590.516 1021.77 591.295 1022.96C592.09 1024.12 592.488 1025.43 592.488 1026.89C592.488 1028.21 592.158 1029.51 591.498 1030.78C590.838 1032.04 589.907 1033.02 588.705 1033.7C587.503 1034.37 586.174 1034.71 584.719 1034.71C583.585 1034.71 582.07 1034.36 580.174 1033.64C579.666 1033.46 579.319 1033.37 579.133 1033.37C578.574 1033.37 578.109 1033.79 577.736 1034.63H576.898L576.492 1026.1H577.355C578.117 1028.34 579.158 1030.01 580.479 1031.13C581.816 1032.25 583.077 1032.81 584.262 1032.81C585.074 1032.81 585.734 1032.56 586.242 1032.07C586.767 1031.56 587.029 1030.95 587.029 1030.24C587.029 1029.43 586.775 1028.73 586.268 1028.13C585.76 1027.54 584.626 1026.65 582.865 1025.44C580.275 1023.65 578.6 1022.28 577.838 1021.33C576.721 1019.94 576.162 1018.41 576.162 1016.73C576.162 1014.91 576.788 1013.26 578.041 1011.78C579.311 1010.29 581.139 1009.55 583.525 1009.55C584.812 1009.55 586.056 1009.86 587.258 1010.49C587.715 1010.74 588.087 1010.87 588.375 1010.87C588.68 1010.87 588.925 1010.81 589.111 1010.69C589.298 1010.56 589.594 1010.19 590 1009.6H590.863ZM605.539 1001.58V1010.26H611.176V1012.77H605.539V1027.42C605.539 1028.79 605.598 1029.68 605.717 1030.09C605.852 1030.48 606.081 1030.8 606.402 1031.05C606.724 1031.29 607.02 1031.41 607.291 1031.41C608.391 1031.41 609.432 1030.57 610.414 1028.9L611.176 1029.46C609.805 1032.71 607.579 1034.33 604.498 1034.33C602.992 1034.33 601.714 1033.92 600.664 1033.09C599.632 1032.24 598.971 1031.3 598.684 1030.27C598.514 1029.69 598.43 1028.13 598.43 1025.6V1012.77H595.332V1011.88C597.465 1010.38 599.276 1008.8 600.766 1007.14C602.272 1005.48 603.584 1003.62 604.701 1001.58H605.539ZM618.184 1026.18C619.368 1026.18 620.367 1026.59 621.18 1027.42C622.009 1028.25 622.424 1029.25 622.424 1030.42C622.424 1031.59 622.009 1032.59 621.18 1033.42C620.35 1034.23 619.352 1034.63 618.184 1034.63C617.016 1034.63 616.017 1034.23 615.188 1033.42C614.375 1032.59 613.969 1031.59 613.969 1030.42C613.969 1029.25 614.375 1028.25 615.188 1027.42C616.017 1026.59 617.016 1026.18 618.184 1026.18ZM641.619 998.859V1027.02C641.619 1029.13 641.712 1030.49 641.898 1031.08C642.085 1031.66 642.474 1032.13 643.066 1032.5C643.659 1032.87 644.607 1033.06 645.91 1033.06H646.697V1034H628.568V1033.06H629.482C630.955 1033.06 632.005 1032.89 632.631 1032.55C633.257 1032.21 633.68 1031.75 633.9 1031.16C634.12 1030.56 634.23 1029.18 634.23 1027.02V1009.17C634.23 1007.58 634.154 1006.59 634.002 1006.2C633.85 1005.79 633.562 1005.45 633.139 1005.18C632.732 1004.89 632.258 1004.75 631.717 1004.75C630.854 1004.75 629.804 1005.02 628.568 1005.56L628.111 1004.65L640.781 998.859H641.619ZM652.283 1034.71V1034C655.093 1033.36 657.471 1032.41 659.418 1031.16C661.382 1029.9 662.93 1028.35 664.064 1026.51C665.215 1024.66 666.02 1022.54 666.477 1020.14C665.427 1020.68 664.53 1021.06 663.785 1021.28C663.057 1021.48 662.287 1021.58 661.475 1021.58C658.868 1021.58 656.693 1020.64 654.949 1018.77C653.223 1016.89 652.359 1014.31 652.359 1011.05C652.359 1008.78 652.825 1006.71 653.756 1004.83C654.704 1002.93 656.049 1001.47 657.793 1000.43C659.536 999.384 661.348 998.859 663.227 998.859C665.241 998.859 667.145 999.435 668.939 1000.59C670.734 1001.74 672.164 1003.4 673.23 1005.59C674.297 1007.77 674.83 1010.26 674.83 1013.05C674.83 1016.68 673.958 1020.15 672.215 1023.46C670.488 1026.78 667.907 1029.45 664.471 1031.46C661.035 1033.46 656.972 1034.54 652.283 1034.71ZM666.857 1018C667.027 1016.11 667.111 1014.44 667.111 1013C667.111 1009.92 666.756 1007.05 666.045 1004.39C665.639 1002.92 665.038 1001.84 664.242 1001.14C663.819 1000.77 663.269 1000.59 662.592 1000.59C661.745 1000.59 661.085 1000.95 660.611 1001.68C659.951 1002.68 659.621 1004.58 659.621 1007.39C659.621 1012.08 660.18 1015.31 661.297 1017.09C662.025 1018.24 663.007 1018.82 664.242 1018.82C664.902 1018.82 665.774 1018.55 666.857 1018ZM684.377 1016.73V1015.85C686.307 1015.29 687.644 1014.77 688.389 1014.3C689.133 1013.81 689.777 1013.07 690.318 1012.09C690.86 1011.09 691.131 1010.08 691.131 1009.07C691.131 1007.66 690.615 1006.46 689.582 1005.46C688.566 1004.45 687.297 1003.94 685.773 1003.94C683.404 1003.94 681.389 1005.19 679.73 1007.7L678.791 1007.37C680.01 1004.54 681.567 1002.41 683.463 1000.99C685.376 999.57 687.5 998.859 689.836 998.859C692.223 998.859 694.186 999.587 695.727 1001.04C697.284 1002.5 698.062 1004.2 698.062 1006.15C698.062 1007.42 697.699 1008.64 696.971 1009.83C696.26 1011 695.134 1012.03 693.594 1012.93C695.574 1013.89 697.081 1015.08 698.113 1016.51C699.163 1017.91 699.688 1019.68 699.688 1021.81C699.688 1025.4 698.384 1028.46 695.777 1030.98C693.188 1033.48 689.709 1034.74 685.342 1034.74C682.43 1034.74 680.306 1034.25 678.969 1033.29C678.004 1032.61 677.521 1031.74 677.521 1030.67C677.521 1029.9 677.801 1029.24 678.359 1028.69C678.918 1028.13 679.561 1027.86 680.289 1027.86C680.848 1027.86 681.372 1027.97 681.863 1028.21C682.134 1028.35 683.09 1029.09 684.732 1030.45C686.391 1031.78 687.94 1032.45 689.379 1032.45C690.632 1032.45 691.706 1031.96 692.604 1030.98C693.501 1029.98 693.949 1028.72 693.949 1027.2C693.949 1024.88 693.137 1022.74 691.512 1020.8C689.887 1018.83 687.508 1017.48 684.377 1016.73ZM711.9 1034.71L721.27 1006.3H714.135C711.342 1006.3 709.243 1006.66 707.838 1007.39C706.856 1007.9 706.044 1008.85 705.4 1010.26H704.436L706.924 999.57H727.439L715.887 1034.71H711.9Z" fill="#4D590D"/>
<path d="M431.999 352V440H398.399C331.199 440 270.399 460.8 242.399 491.2C191.199 546.4 213.599 631.2 287.199 661.6L314.399 673.6L281.599 688C213.599 718.4 174.399 784.8 187.999 846.4C194.399 877.6 236.799 916.8 275.999 927.2C296.799 932.8 444.799 936 704.799 936H1101.6L1110.4 895.2C1116 872 1119.2 852 1116.8 850.4C1115.2 848.8 1106.4 860 1097.6 875.2C1085.6 895.2 1072 905.6 1050.4 911.2C1008 923.2 894.399 922.4 877.599 909.6C867.199 901.6 863.999 881.6 862.399 800L859.999 700L947.999 702.4C1037.6 704.8 1038.4 705.6 1061.6 741.6C1069.6 753.6 1071.2 744.8 1071.2 693.6C1072 657.6 1068.8 632 1064 632C1060 632 1056 636.8 1056 642.4C1056 648.8 1049.6 659.2 1041.6 666.4C1029.6 677.6 1009.6 680 945.599 680H863.999V572V464H962.399C1016 464 1064 467.2 1069.6 470.4C1075.2 473.6 1082.4 485.6 1087.2 496C1094.4 513.6 1095.2 511.2 1095.2 477.6L1096 440H987.999H879.999V352C879.999 262.4 874.399 248.8 849.599 273.6C842.399 280.8 792.799 284.8 675.199 286.4C541.599 288.8 504.799 287.2 474.399 276.8C453.599 269.6 435.999 264 434.399 264C432.799 264 431.999 303.2 431.999 352ZM623.999 591.2C623.999 748.8 620.799 880 615.999 891.2C599.999 934.4 533.599 938.4 521.599 897.6C518.399 885.6 515.999 786.4 515.999 677.6V478.4L535.199 463.2C544.799 455.2 556.799 449.6 559.999 452C563.999 454.4 568.799 452.8 571.999 448C575.199 443.2 554.399 440 512.799 440C439.199 440 439.999 440 456.799 370.4C468.799 325.6 492.799 312.8 570.399 312H623.999V591.2ZM819.999 323.2C847.199 335.2 849.599 339.2 868.799 417.6L873.599 440H808.799C772.799 440 743.999 443.2 743.999 447.2C743.999 451.2 751.999 456 761.599 457.6C795.199 462.4 799.999 488 799.999 684.8C799.999 884.8 795.199 916.8 763.199 924.8C731.999 932.8 698.399 914.4 692.799 886.4C690.399 872.8 687.999 738.4 687.999 587.2V312H739.999C768.799 312 804.799 316.8 819.999 323.2ZM454.399 565.6L456.799 672H410.399C355.199 672 303.999 649.6 290.399 618.4C274.399 584 277.599 533.6 298.399 503.2C319.999 470.4 357.599 456 411.999 458.4L451.999 460L454.399 565.6ZM454.399 791.2C452.799 861.6 447.999 898.4 440.799 907.2C425.599 925.6 334.399 924.8 303.199 906.4C277.599 891.2 255.999 844.8 255.999 804.8C255.999 741.6 326.399 688 410.399 688H457.599L454.399 791.2Z" fill="#4D590D"/>
</svg>
