<svg width="18" height="18" viewBox="0 0 18 18" fill="none" xmlns="http://www.w3.org/2000/svg">
<path d="M9.00131 0.666992C13.6038 0.666992 17.3346 4.39783 17.3346 9.00033C17.3346 13.6028 13.6038 17.3337 9.00131 17.3337C7.52863 17.336 6.08186 16.9463 4.80965 16.2045L0.671314 17.3337L1.79798 13.1937C1.05556 11.9211 0.66552 10.4737 0.66798 9.00033C0.66798 4.39783 4.39881 0.666992 9.00131 0.666992ZM6.16131 5.08366L5.99465 5.09033C5.88675 5.0969 5.7813 5.12524 5.68465 5.17366C5.59425 5.22485 5.51173 5.28885 5.43965 5.36366C5.33965 5.45783 5.28298 5.53949 5.22215 5.61866C4.91392 6.01941 4.74796 6.51142 4.75048 7.01699C4.75215 7.42533 4.85881 7.82283 5.02548 8.19449C5.36631 8.94616 5.92715 9.74199 6.66715 10.4795C6.84548 10.657 7.02048 10.8353 7.20881 11.0012C8.1283 11.8107 9.22402 12.3945 10.4088 12.7062L10.8821 12.7787C11.0363 12.787 11.1905 12.7753 11.3455 12.7678C11.5882 12.7553 11.8252 12.6896 12.0396 12.5753C12.1488 12.5191 12.2553 12.4579 12.3588 12.392C12.3588 12.392 12.3946 12.3687 12.463 12.317C12.5755 12.2337 12.6446 12.1745 12.738 12.077C12.8071 12.0053 12.8671 11.9212 12.913 11.8253C12.978 11.6895 13.043 11.4303 13.0696 11.2145C13.0896 11.0495 13.0838 10.9595 13.0813 10.9037C13.078 10.8145 13.0038 10.722 12.923 10.6828L12.438 10.4653C12.438 10.4653 11.713 10.1495 11.2696 9.94783C11.2233 9.92757 11.1735 9.91599 11.123 9.91366C11.066 9.9078 11.0084 9.91422 10.954 9.93247C10.8997 9.95073 10.8499 9.9804 10.808 10.0195C10.8038 10.0178 10.748 10.0653 10.1455 10.7953C10.1109 10.8418 10.0633 10.8769 10.0086 10.8962C9.95403 10.9155 9.89491 10.9181 9.83881 10.9037C9.78453 10.8891 9.73134 10.8707 9.67965 10.8487C9.57631 10.8053 9.54048 10.7887 9.46965 10.7587C8.99137 10.5499 8.54855 10.268 8.15715 9.92283C8.05215 9.83116 7.95465 9.73116 7.85465 9.63449C7.5268 9.32052 7.24108 8.96533 7.00465 8.57783L6.95548 8.49866C6.92017 8.44546 6.89161 8.38808 6.87048 8.32783C6.83881 8.20533 6.92131 8.10699 6.92131 8.10699C6.92131 8.10699 7.12381 7.88532 7.21798 7.76533C7.30965 7.64866 7.38715 7.53533 7.43715 7.45449C7.53548 7.29616 7.56631 7.13366 7.51465 7.00783C7.28131 6.43783 7.03965 5.87033 6.79131 5.30699C6.74215 5.19533 6.59631 5.11533 6.46381 5.09949C6.41881 5.09449 6.37381 5.08949 6.32881 5.08616C6.2169 5.0806 6.10476 5.08171 5.99298 5.08949L6.16048 5.08283L6.16131 5.08366Z" fill="#3A463C"/>
</svg>
